<?xml version="1.0" standalone="no"?>
<!DOCTYPE svg PUBLIC "-//W3C//DTD SVG 1.1//EN" "http://www.w3.org/Graphics/SVG/1.1/DTD/svg11.dtd" >
<svg>
<metadata>
Created by FontForge 20090622 at Fri Jun 28 06:52:41 2019
 By deploy user
Copyright (c) 2011 by typedepot. All rights reserved.
</metadata>
<defs>
<font id="CentraleSansBook" horiz-adv-x="703" >
  <font-face 
    font-family="CentraleSans Book"
    font-weight="400"
    font-stretch="normal"
    units-per-em="1000"
    panose-1="2 0 0 0 0 0 0 0 0 0"
    ascent="750"
    descent="-250"
    x-height="520"
    cap-height="700"
    bbox="-170 -198 1363 929"
    underline-thickness="50"
    underline-position="-50"
    unicode-range="U+000D-U+FB04"
  />
<missing-glyph horiz-adv-x="639" 
d="M558 732v-853h-475v853h475zM490 -73l-170 325l-170 -325h340zM490 683h-340l170 -324zM510 615l-162 -310l162 -309v619zM130 615v-619l162 309z" />
    <glyph glyph-name="f_f" unicode="ff" horiz-adv-x="627" 
d="M522 739q40 0 93 -10l-7 -58q-38 8 -68 8q-86 0 -86 -98v-61h149v-57h-149v-463h-79v463h-198v-463h-79v463h-74v57h74v58q0 81 33 121t113 40q41 0 71 -9l-9 -57q-32 6 -49 6q-43 0 -61.5 -23.5t-18.5 -71.5v-64h198v58q0 81 33 121t114 40z" />
    <glyph glyph-name="f_i" unicode="fi" horiz-adv-x="559" 
d="M288 739q76 0 159 -44l-22 -47q-68 34 -129 34q-60 0 -89.5 -36.5t-29.5 -86.5v-39h302v-520h-79v463h-223v-463h-79v463h-74v57h74v45q2 79 54.5 126.5t135.5 47.5z" />
    <glyph glyph-name="f_l" unicode="fl" horiz-adv-x="597" 
d="M563 56l2 -57q-23 -6 -71 -6q-49 0 -71 21.5t-22 74.5v465q0 62 -32.5 93.5t-81.5 31.5q-48 0 -79 -31.5t-31 -91.5v-36h121v-57h-121v-463h-79v463h-74v57h74v33q0 87 51.5 136.5t137.5 49.5q84 0 138.5 -47t54.5 -137v-458q0 -26 10 -34.5t30 -8.5q11 0 26.5 1t16.5 1z
" />
    <glyph glyph-name="f_f_i" unicode="ffi" horiz-adv-x="821" 
d="M556 746q86 0 161 -40l-21 -51q-61 30 -130 30q-60 0 -85.5 -35t-25.5 -83v-47h286v-520h-79v463h-207v-463h-79v463h-199v-463h-79v463h-74v57h74v58q0 81 33 121t114 40q38 0 70 -8l-8 -58q-27 5 -50 5q-43 0 -61.5 -23.5t-18.5 -71.5v-63h199v46q0 84 48.5 132
t131.5 48z" />
    <glyph glyph-name="f_f_l" unicode="ffl" horiz-adv-x="873" 
d="M839 56l2 -57q-23 -6 -71 -6q-49 0 -71 21.5t-22 74.5v471q0 62 -32 93.5t-81 31.5q-48 0 -78.5 -32t-30.5 -93v-40h120v-57h-120v-463h-79v463h-199v-463h-79v463h-74v57h74v58q0 81 32.5 121t112.5 40q39 0 71 -8l-8 -58q-34 6 -50 6q-43 0 -61 -23.5t-18 -71.5v-64
h199v40q0 86 51 136t137 50q84 0 138 -47t54 -139v-463q0 -25 10.5 -34t29.5 -9q11 0 26.5 1t16.5 1z" />
    <glyph glyph-name=".notdef" horiz-adv-x="639" 
d="M558 732v-853h-475v853h475zM490 -73l-170 325l-170 -325h340zM490 683h-340l170 -324zM510 615l-162 -310l162 -309v619zM130 615v-619l162 309z" />
    <glyph glyph-name=".null" horiz-adv-x="343" 
 />
    <glyph glyph-name=".null" horiz-adv-x="343" 
 />
    <glyph glyph-name="nonmarkingreturn" horiz-adv-x="333" 
 />
    <glyph glyph-name="CR" unicode="&#xd;" horiz-adv-x="292" 
 />
    <glyph glyph-name="space" unicode=" " horiz-adv-x="265" 
 />
    <glyph glyph-name="exclam" unicode="!" horiz-adv-x="275" 
d="M182 703l-11 -514h-66l-11 514h88zM136 80q48 0 48 -44q0 -45 -48 -45t-48 45q0 44 48 44z" />
    <glyph glyph-name="quotedbl" unicode="&#x22;" horiz-adv-x="411" 
d="M338 700l-47 -258h-46l12 258h81zM174 700l-47 -258h-46l12 258h81z" />
    <glyph glyph-name="numbersign" unicode="#" horiz-adv-x="779" 
d="M679 231l-12 -67h-133l-29 -164h-68l29 164h-210l-29 -164h-71l29 164h-133l13 67h132l42 231h-134l12 67h134l31 172h69l-30 -172h210l30 172h68l-30 -172h132l-13 -67h-131l-41 -231h133zM309 462l-41 -231h210l41 231h-210z" />
    <glyph glyph-name="dollar" unicode="$" horiz-adv-x="584" 
d="M319 791v-82q99 -5 191 -46l-24 -64q-94 44 -185 44q-73 0 -113 -30.5t-40 -85.5q0 -72 77 -108q28 -12 110 -36q47 -13 79 -27t62.5 -36t46 -55.5t15.5 -77.5q0 -91 -58.5 -140t-160.5 -56v-84h-46v84q-119 8 -211 52l21 63q102 -49 210 -49q77 0 117 31.5t40 87.5
q0 66 -71 100q-23 12 -114 40q-47 14 -76.5 26.5t-62.5 35t-49 57t-16 81.5q0 86 55.5 136.5t156.5 56.5v82h46z" />
    <glyph glyph-name="percent" unicode="%" horiz-adv-x="811" 
d="M637 701l-402 -701h-66l403 701h65zM202 658q-42 0 -69.5 -32.5t-27.5 -84.5t28 -84t70 -32t69 32t27 84q0 53 -26.5 85t-70.5 32zM204 710q71 0 114 -46t43 -122t-43.5 -122.5t-115.5 -46.5q-70 0 -113.5 46.5t-43.5 120.5q0 77 44 123.5t115 46.5zM608 276
q-42 0 -69.5 -32.5t-27.5 -85.5q0 -52 28 -84t70 -32t69 32t27 84q0 54 -27 86t-70 32zM610 328q70 0 113 -46.5t43 -122.5q0 -75 -43 -121.5t-115 -46.5q-70 0 -114 46.5t-44 120.5q0 76 44.5 123t115.5 47z" />
    <glyph glyph-name="ampersand" unicode="&#x26;" horiz-adv-x="665" 
d="M279 709q67 0 113 -39t46 -107q0 -62 -36.5 -102.5t-104.5 -81.5l178 -204q38 52 76 131l57 -29q-40 -89 -90 -152l110 -125h-88l-67 76q-92 -85 -207 -85q-91 0 -152 49t-61 138q0 71 38.5 118t109.5 92q-45 51 -65 86.5t-20 80.5q0 71 47 112.5t116 41.5zM273 57
q85 0 158 68l-191 219q-54 -35 -85 -71.5t-31 -87.5q0 -59 43 -93.5t106 -34.5zM184 552q0 -28 15.5 -54.5t57.5 -73.5q57 36 85 66t28 71q0 40 -26 63t-64 23q-41 0 -68.5 -26.5t-27.5 -68.5z" />
    <glyph glyph-name="quotesingle" unicode="'" horiz-adv-x="251" 
d="M174 700l-47 -258h-46l12 258h81z" />
    <glyph glyph-name="parenleft" unicode="(" horiz-adv-x="334" 
d="M235 732h84q-186 -181 -186 -459q0 -276 186 -460h-84q-72 65 -127.5 184.5t-55.5 275.5q0 155 55.5 275t127.5 184z" />
    <glyph glyph-name="parenright" unicode=")" horiz-adv-x="334" 
d="M99 -187h-84q186 181 186 459q0 276 -186 460h84q72 -65 127.5 -184.5t55.5 -275.5q0 -155 -55.5 -275t-127.5 -184z" />
    <glyph glyph-name="asterisk" unicode="*" horiz-adv-x="440" 
d="M247 751l-9 -128l107 73l26 -46l-116 -56l117 -56l-27 -48l-107 74l9 -128h-52l10 128l-108 -74l-27 48l117 56l-116 56l26 46l108 -73l-10 128h52z" />
    <glyph glyph-name="plus" unicode="+" horiz-adv-x="562" 
d="M309 554v-191h190v-59h-190v-186h-60v186h-186v59h186v191h60z" />
    <glyph glyph-name="comma" unicode="," horiz-adv-x="251" 
d="M122 77q26 0 43.5 -22.5t17.5 -58.5q0 -43 -26.5 -76t-67.5 -53l-16 27q68 36 68 96q0 10 -3 21q-5 -18 -24 -18q-39 0 -39 39q0 20 13 32.5t34 12.5z" />
    <glyph glyph-name="hyphen" unicode="-" horiz-adv-x="508" 
d="M434 299v-61h-360v61h360z" />
    <glyph glyph-name="period" unicode="." horiz-adv-x="236" 
d="M118 81q21 0 33.5 -12t12.5 -33t-12.5 -32.5t-33.5 -11.5q-46 0 -46 44q0 21 12.5 33t33.5 12z" />
    <glyph glyph-name="slash" unicode="/" horiz-adv-x="473" 
d="M448 734l-404 -904h-66l403 904h67z" />
    <glyph glyph-name="zero" unicode="0" horiz-adv-x="691" 
d="M346 -9q-133 0 -209 97.5t-76 260.5q0 164 75.5 262t210.5 98q133 0 208 -97.5t75 -259.5q0 -164 -75.5 -262.5t-208.5 -98.5zM346 59q96 0 147.5 77t51.5 213q0 137 -52 214.5t-148 77.5t-147.5 -77t-51.5 -213q0 -137 51.5 -214.5t148.5 -77.5z" />
    <glyph glyph-name="one" unicode="1" horiz-adv-x="376" 
d="M274 701v-701h-81v620l-127 -63l-28 58l172 86h64z" />
    <glyph glyph-name="two" unicode="2" horiz-adv-x="566" 
d="M281 709q104 0 169 -55.5t65 -154.5q0 -74 -39 -132.5t-127 -134.5l-186 -163h351v-69h-461v62l248 220q65 59 96.5 106t31.5 107q0 69 -43 107.5t-117 38.5q-93 0 -183 -51l-26 60q103 59 221 59z" />
    <glyph glyph-name="three" unicode="3" horiz-adv-x="576" 
d="M277 709q97 0 160 -46t63 -129q0 -58 -33 -101.5t-96 -61.5q69 -13 113 -62t44 -121q0 -94 -74.5 -145.5t-188.5 -51.5q-122 0 -214 49l25 61q82 -42 179 -42q81 0 135 35t54 104q0 71 -56.5 108.5t-131.5 37.5h-69v60h69q65 0 113 29t48 91q0 60 -45.5 88t-111.5 28
q-88 0 -170 -38l-21 60q36 18 93.5 32.5t114.5 14.5z" />
    <glyph glyph-name="four" unicode="4" horiz-adv-x="604" 
d="M486 701v-470h85v-64h-85v-167h-82v167h-365v60l373 474h74zM122 231h282v358z" />
    <glyph glyph-name="five" unicode="5" horiz-adv-x="581" 
d="M499 700v-68h-331l-14 -238q60 41 154 41q105 0 167 -58.5t62 -154.5q0 -106 -70.5 -168.5t-191.5 -62.5q-122 0 -223 55l27 62q93 -50 185 -50q86 0 137 40.5t51 118.5q0 73 -42.5 114.5t-124.5 41.5q-75 0 -148 -52l-53 35l23 344h392z" />
    <glyph glyph-name="six" unicode="6" horiz-adv-x="644" 
d="M360 709q118 0 212 -50l-29 -58q-84 41 -174 41q-116 0 -175 -88q-48 -72 -53 -196v-32q29 51 85.5 82t133.5 31q104 0 169 -56.5t65 -162.5q0 -107 -71 -168t-184 -61q-176 0 -240 138q-42 84 -42 206q0 166 79 267q80 107 224 107zM335 377q-79 0 -127.5 -48.5
t-48.5 -114.5q0 -71 49 -114.5t126 -43.5q80 0 127.5 44t47.5 118q0 77 -46.5 118t-127.5 41z" />
    <glyph glyph-name="seven" unicode="7" horiz-adv-x="518" 
d="M490 700v-66l-279 -634h-94l285 629h-377v71h465z" />
    <glyph glyph-name="eight" unicode="8" horiz-adv-x="620" 
d="M309 709q104 0 168.5 -47.5t64.5 -129.5q0 -59 -34 -100.5t-92 -59.5q72 -18 115 -65t43 -119q0 -96 -73 -146.5t-191 -50.5t-192 50.5t-74 146.5q0 71 42 118.5t117 65.5q-58 18 -92 59t-34 101q0 82 64 129.5t168 47.5zM309 335q-82 0 -131 -39t-49 -106
q0 -64 50.5 -100t129.5 -36q80 0 130 36t50 100q0 67 -49 106t-131 39zM310 644q-69 0 -111 -31t-42 -88q0 -54 41 -88.5t112 -34.5t111.5 35t40.5 88q0 57 -42 88t-110 31z" />
    <glyph glyph-name="nine" unicode="9" horiz-adv-x="660" 
d="M312 709q182 0 246 -150q34 -79 34 -194q0 -174 -75 -268q-79 -106 -229 -106q-119 0 -212 50l28 58q89 -41 174 -41q121 0 181 87q44 64 48 197v31q-27 -52 -83.5 -82t-136.5 -30q-103 0 -167.5 56.5t-64.5 162.5t71.5 167.5t185.5 61.5zM314 644q-80 0 -127 -43.5
t-47 -118.5q0 -74 47 -116.5t126 -42.5q80 0 128.5 48.5t48.5 114.5q0 70 -49 114t-127 44z" />
    <glyph glyph-name="colon" unicode=":" horiz-adv-x="242" 
d="M121 448q22 0 34.5 -12t12.5 -32q0 -21 -13 -32.5t-34 -11.5q-46 0 -46 44q0 20 12.5 32t33.5 12zM121 81q21 0 34 -12.5t13 -32.5q0 -21 -13 -32.5t-34 -11.5q-46 0 -46 44q0 20 12.5 32.5t33.5 12.5z" />
    <glyph glyph-name="semicolon" unicode=";" horiz-adv-x="280" 
d="M138 77q26 0 43.5 -22t17.5 -59q0 -85 -93 -132l-16 28q28 14 47 40t20 59q0 11 -3 21q-4 -19 -24 -19q-39 0 -39 39q0 20 13 32.5t34 12.5zM136 448q22 0 34.5 -12.5t12.5 -32.5t-13 -32t-34 -12t-33.5 11.5t-12.5 32.5t12 33t34 12z" />
    <glyph glyph-name="less" unicode="&#x3c;" horiz-adv-x="582" 
d="M24 368l511 179v-68l-427 -144l427 -143v-68l-511 178v66z" />
    <glyph glyph-name="equal" unicode="=" horiz-adv-x="532" 
d="M452 441v-55h-374v55h374zM452 269v-55h-374v55h374z" />
    <glyph glyph-name="greater" unicode="&#x3e;" horiz-adv-x="582" 
d="M558 368v-66l-511 -178v68l427 143l-427 144v68z" />
    <glyph glyph-name="question" unicode="?" horiz-adv-x="485" 
d="M230 709q85 0 146 -42.5t61 -126.5q0 -38 -14 -68t-35.5 -48.5t-46 -37.5l-46 -35t-35.5 -40.5t-14 -54.5v-67h-67v70q0 41 18.5 73t44.5 52.5l52.5 40.5t45 47.5t18.5 61.5q0 53 -38.5 80t-94.5 27q-75 0 -150 -46l-26 59q79 55 181 55zM214 81q49 0 49 -45t-49 -45
q-48 0 -48 45t48 45z" />
    <glyph glyph-name="at" unicode="@" horiz-adv-x="954" 
d="M513 692q112 0 198.5 -35.5t140 -113t53.5 -189.5q0 -119 -57 -193.5t-156 -74.5t-108 78q-45 -77 -151 -77q-81 0 -127 51t-44 135q2 90 52 153t144 63q109 0 146 -86l18 81h57l-48 -271q-13 -83 69 -83q76 0 114 65.5t38 158.5q0 78 -27.5 136t-75.5 92t-107.5 50
t-130.5 16q-187 0 -297.5 -106.5t-110.5 -282.5q0 -164 94.5 -246.5t249.5 -82.5q120 0 241 49l7 -44q-129 -48 -248 -48q-186 0 -292 96.5t-106 273.5q0 195 126.5 315t337.5 120zM467 441q-39 0 -68.5 -15.5t-45 -41.5t-23 -53.5t-7.5 -56.5q-1 -65 31.5 -101.5
t91.5 -36.5q73 0 105.5 51.5t32.5 120.5q0 64 -29.5 98.5t-87.5 34.5z" />
    <glyph glyph-name="A" unicode="A" horiz-adv-x="692" 
d="M400 703l282 -703h-88l-71 180h-357l-71 -180h-85l282 703h108zM344 630l-151 -382h303l-151 382h-1z" />
    <glyph glyph-name="B" unicode="B" horiz-adv-x="681" 
d="M98 700h305q93 0 148.5 -47.5t55.5 -134.5q0 -68 -39 -109t-83 -52q58 -7 103 -51t45 -120q0 -86 -56.5 -136t-144.5 -50h-334v700zM410 324h-227v-256h236q57 0 94 35t37 92q0 54 -35.5 91.5t-104.5 37.5zM399 632h-216v-246h217q59 0 92.5 33.5t33.5 87.5
q0 58 -37 91.5t-90 33.5z" />
    <glyph glyph-name="C" unicode="C" horiz-adv-x="680" 
d="M426 709q117 0 204 -39l-22 -63q-76 34 -165 34q-141 0 -221.5 -80.5t-80.5 -210.5q0 -131 80.5 -211t218.5 -80q93 0 175 34l17 -64q-93 -38 -208 -38q-165 0 -268.5 97t-103.5 261q0 166 105 263t269 97z" />
    <glyph glyph-name="D" unicode="D" horiz-adv-x="753" 
d="M98 700h285q84 0 160 -44q78 -46 117 -126t39 -178q0 -100 -39 -182t-117 -126q-75 -44 -160 -44h-285v700zM363 632h-180v-564h179q45 0 91.5 17.5t77.5 46.5q79 74 79 220q0 165 -107 238q-64 42 -140 42z" />
    <glyph glyph-name="E" unicode="E" horiz-adv-x="652" 
d="M588 700v-68h-405v-256h349v-68h-349v-240h419v-68h-504v700h490z" />
    <glyph glyph-name="F" unicode="F" horiz-adv-x="611" 
d="M582 700v-68h-399v-265h342v-68h-342v-299h-85v700h484z" />
    <glyph glyph-name="G" unicode="G" horiz-adv-x="749" 
d="M424 709q128 0 225 -51l-23 -63q-98 46 -190 46q-137 0 -216 -80t-79 -209q0 -130 77 -211.5t206 -81.5q118 0 195 70v156h-187v64h257v-254q-104 -104 -270 -104q-161 0 -264 97t-103 263q0 164 103.5 261t268.5 97z" />
    <glyph glyph-name="H" unicode="H" horiz-adv-x="765" 
d="M667 700v-700h-85v314h-399v-314h-85v700h85v-318h399v318h85z" />
    <glyph glyph-name="I" unicode="I" horiz-adv-x="279" 
d="M182 700v-700h-85v700h85z" />
    <glyph glyph-name="J" unicode="J" horiz-adv-x="534" 
d="M446 700v-476q0 -112 -62 -172.5t-164 -60.5q-81 0 -135.5 40.5t-71.5 81.5l50 45q21 -42 60.5 -70t92.5 -28q65 0 105 41.5t40 121.5v477h85z" />
    <glyph glyph-name="K" unicode="K" horiz-adv-x="684" 
d="M645 700l-249 -266l268 -434h-101l-227 369l-153 -164v-205h-85v700h85v-388l362 388h100z" />
    <glyph glyph-name="L" unicode="L" horiz-adv-x="570" 
d="M183 700v-632h369v-68h-454v700h85z" />
    <glyph glyph-name="M" unicode="M" horiz-adv-x="928" 
d="M831 700v-700h-85v470l6 130h-2l-247 -522h-77l-248 522h-1l6 -130v-470h-85v700h121l248 -536l245 536h119z" />
    <glyph glyph-name="N" unicode="N" horiz-adv-x="751" 
d="M654 700v-700h-89l-382 570v-570h-85v700h89l382 -564v564h85z" />
    <glyph glyph-name="O" unicode="O" horiz-adv-x="800" 
d="M400 709q160 0 256.5 -98.5t96.5 -261.5t-96 -260.5t-257 -97.5q-160 0 -256.5 97.5t-96.5 260.5t96.5 261.5t256.5 98.5zM400 641q-119 0 -191.5 -78.5t-72.5 -214.5q0 -135 72.5 -212t191.5 -77q121 0 192.5 77t71.5 212q0 136 -72 214.5t-192 78.5z" />
    <glyph glyph-name="P" unicode="P" horiz-adv-x="682" 
d="M98 700h326q101 0 163.5 -65.5t62.5 -156.5q0 -94 -62 -158t-163 -64h-242v-256h-85v700zM402 632h-219v-308h219q74 0 116.5 43t42.5 110q0 66 -43 110.5t-116 44.5z" />
    <glyph glyph-name="Q" unicode="Q" horiz-adv-x="806" 
d="M404 709q160 0 256.5 -98.5t96.5 -261.5q0 -129 -62 -218.5t-171 -121.5q97 -47 213 -75l-22 -68q-96 21 -283 126q-6 0 -17 -0.5t-16 -0.5q-158 2 -253 99.5t-95 258.5q0 163 96.5 261.5t256.5 98.5zM404 641q-119 0 -191.5 -78.5t-72.5 -214.5q0 -135 72.5 -212
t191.5 -77q121 0 192.5 77t71.5 212q0 136 -72 214.5t-192 78.5z" />
    <glyph glyph-name="R" unicode="R" horiz-adv-x="693" 
d="M98 700h339q95 0 153 -58.5t58 -145.5q0 -72 -40.5 -124.5t-111.5 -72.5l143 -299h-90l-135 294h-231v-294h-85v700zM421 632h-238v-270h238q64 0 101 38t37 97q0 58 -37.5 96.5t-100.5 38.5z" />
    <glyph glyph-name="S" unicode="S" horiz-adv-x="613" 
d="M306 709q122 0 235 -52l-24 -65q-10 6 -33 15.5t-73.5 21.5t-99.5 12q-78 0 -122 -30.5t-44 -85.5q0 -14 4 -27t8 -22.5t15.5 -19t18 -15.5t23.5 -13.5l24.5 -11t29.5 -10t29 -8t31 -8.5q58 -15 93.5 -27.5t73.5 -35.5t56 -57.5t18 -81.5q0 -97 -70 -147t-190 -50
q-73 0 -144.5 18.5t-115.5 42.5l22 65q130 -57 236 -57q89 0 131.5 31.5t42.5 86.5q0 25 -11 45t-24 32t-42.5 24t-47.5 17.5t-58 16.5q-45 11 -71.5 19.5t-63.5 25.5t-57 36t-35 51t-15 72q0 94 68.5 143t181.5 49z" />
    <glyph glyph-name="T" unicode="T" horiz-adv-x="597" 
d="M583 700v-68h-242v-632h-85v632h-241v68h568z" />
    <glyph glyph-name="U" unicode="U" horiz-adv-x="718" 
d="M635 700v-456q0 -118 -77 -185.5t-199 -67.5q-124 0 -200 68.5t-76 184.5v456h85v-460q0 -83 54.5 -132t136.5 -49q83 0 137 49t54 132v460h85z" />
    <glyph glyph-name="V" unicode="V" horiz-adv-x="667" 
d="M648 700l-265 -700h-98l-265 700h92l223 -605l222 605h91z" />
    <glyph glyph-name="W" unicode="W" horiz-adv-x="979" 
d="M948 700l-199 -700h-104l-156 566l-154 -566h-104l-200 700h93l100 -364q12 -44 33.5 -129.5l27.5 -108.5h1l159 593h89l160 -593h1q7 25 28 112t33 129l101 361h91z" />
    <glyph glyph-name="X" unicode="X" horiz-adv-x="664" 
d="M641 700l-255 -345l259 -355h-109l-205 288l-209 -288h-101l256 341l-260 359h105l210 -294l212 294h97z" />
    <glyph glyph-name="Y" unicode="Y" horiz-adv-x="626" 
d="M355 0h-85v279l-251 421h88l206 -351l205 351h88l-251 -423v-277z" />
    <glyph glyph-name="Z" unicode="Z" horiz-adv-x="617" 
d="M573 700v-57l-434 -578l212 3h222v-68h-537v57l432 577l-210 -2h-207v68h522z" />
    <glyph glyph-name="bracketleft" unicode="[" horiz-adv-x="303" 
d="M256 709v-62h-100v-768h100v-62h-165v892h165z" />
    <glyph glyph-name="backslash" unicode="\" horiz-adv-x="485" 
d="M38 733h66l344 -768h-66z" />
    <glyph glyph-name="bracketright" unicode="]" horiz-adv-x="303" 
d="M212 709v-892h-165v62h99v768h-99v62h165z" />
    <glyph glyph-name="underscore" unicode="_" horiz-adv-x="571" 
d="M496 -80v-56h-422v56h422z" />
    <glyph glyph-name="grave" unicode="`" horiz-adv-x="272" 
d="M70 714h74l58 -148h-59z" />
    <glyph glyph-name="a" unicode="a" horiz-adv-x="584" 
d="M287 527q107 0 158 -37t51 -131v-266q0 -32 33 -32q6 0 28 2l5 -56q-47 -10 -67 -10q-39 0 -58.5 19t-19.5 49v15q-57 -87 -190 -87q-89 0 -139.5 39t-50.5 118q0 87 61.5 123t173.5 36q68 0 145 -9v59q0 61 -35.5 84t-104.5 23q-93 0 -185 -26l-12 59q94 28 207 28z
M242 54q75 0 125 37.5t50 97.5v55q-75 9 -141 9q-157 0 -157 -102q0 -52 35 -74.5t88 -22.5z" />
    <glyph glyph-name="b" unicode="b" horiz-adv-x="636" 
d="M158 732v-301q59 97 196 97q113 0 176 -76t63 -193t-62 -192t-177 -75q-142 0 -200 98l-7 -90h-68v732h79zM334 465q-73 0 -125 -54t-52 -152q0 -97 51.5 -150.5t124.5 -53.5q84 0 131 54.5t47 149.5q0 97 -46.5 151.5t-130.5 54.5z" />
    <glyph glyph-name="c" unicode="c" horiz-adv-x="521" 
d="M326 528q90 0 155 -31l-18 -56q-66 24 -126 24q-100 0 -154.5 -55.5t-54.5 -149.5t55 -149.5t158 -55.5q55 0 126 28l14 -59q-76 -32 -153 -32q-126 0 -204 71.5t-78 196.5t77.5 196.5t202.5 71.5z" />
    <glyph glyph-name="d" unicode="d" horiz-adv-x="636" 
d="M479 732h79v-732h-68l-8 90q-58 -98 -199 -98q-115 0 -177 75t-62 192t63 193t176 76q137 0 196 -97v301zM303 465q-84 0 -130.5 -54.5t-46.5 -151.5q0 -95 47 -149.5t131 -54.5q73 0 124.5 53.5t51.5 150.5q0 98 -52 152t-125 54z" />
    <glyph glyph-name="e" unicode="e" horiz-adv-x="591" 
d="M544 232h-414q1 -86 55.5 -131t145.5 -45q93 0 176 40l15 -59q-98 -44 -198 -44q-133 0 -205.5 70.5t-72.5 192.5t70.5 196.5t190.5 74.5q115 0 177.5 -69t62.5 -183q0 -34 -3 -43zM309 464q-76 0 -123.5 -44.5t-54.5 -133.5h338q0 81 -39 129.5t-121 48.5z" />
    <glyph glyph-name="f" unicode="f" horiz-adv-x="350" 
d="M245 739q43 0 93 -10l-7 -58q-38 8 -68 8q-86 0 -86 -98v-61h150v-57h-150v-463h-79v463h-74v57h74v58q0 81 33 121t114 40z" />
    <glyph glyph-name="g" unicode="g" horiz-adv-x="576" 
d="M291 527q50 0 82 -7h168v-54l-88 -1q59 -39 59 -116q0 -75 -56.5 -117.5t-164.5 -42.5q-75 0 -122 18q-36 -20 -35 -54q0 -34 39.5 -45t113.5 -11h66q87 0 134 -28.5t47 -95.5q0 -149 -245 -149q-241 0 -241 133q0 67 60 108q-42 27 -42 77q0 59 53 93q-50 42 -50 122
q0 85 58 127.5t164 42.5zM291 467q-141 0 -141 -110q0 -108 140 -108q141 0 141 108q0 110 -140 110zM283 35q-76 0 -112 7q-47 -30 -47 -74q0 -33 24 -52t57.5 -24.5t84.5 -5.5q168 0 168 82q0 39 -26.5 53t-88.5 14h-60z" />
    <glyph glyph-name="h" unicode="h" horiz-adv-x="613" 
d="M158 732v-307q59 102 188 102q192 0 192 -201v-326h-79v320q0 71 -35.5 108.5t-99.5 37.5q-82 0 -124 -54.5t-42 -129.5v-282h-79v732h79z" />
    <glyph glyph-name="i" unicode="i" horiz-adv-x="252" 
d="M125 694q47 0 47 -42t-47 -42t-47 42t47 42zM170 520v-520h-79v463h-63v57h142z" />
    <glyph glyph-name="j" unicode="j" horiz-adv-x="255" 
d="M174 520v-580q0 -63 -27 -89t-89 -26h-41v63h24q33 0 43.5 13.5t10.5 48.5v513h-67v57h146zM127 694q47 0 47 -42t-47 -42t-47 42t47 42z" />
    <glyph glyph-name="k" unicode="k" horiz-adv-x="526" 
d="M158 732v-482l267 270h88l-196 -200l200 -320h-89l-164 266l-106 -107v-159h-79v732h79z" />
    <glyph glyph-name="l" unicode="l" horiz-adv-x="274" 
d="M157 732v-635q0 -25 10.5 -34t29.5 -9q11 0 26.5 1t16.5 1l2 -57q-22 -6 -71 -6q-48 0 -70.5 21.5t-22.5 69.5v648h79z" />
    <glyph glyph-name="m" unicode="m" horiz-adv-x="907" 
d="M655 527q177 0 177 -200v-327h-79v326q0 69 -32 104.5t-88 35.5q-69 0 -103 -47.5t-34 -114.5v-304h-79v332q0 63 -35 98.5t-91 35.5q-61 0 -97 -42t-36 -109v-315h-79v520h69l4 -81q23 41 66 64.5t95 23.5q56 0 98 -28t60 -85q52 113 184 113z" />
    <glyph glyph-name="n" unicode="n" horiz-adv-x="612" 
d="M345 527q192 0 192 -201v-326h-79v320q0 71 -35.5 108.5t-99.5 37.5q-82 0 -124 -54.5t-42 -129.5v-282h-79v520h69l6 -95q59 102 192 102z" />
    <glyph glyph-name="o" unicode="o" horiz-adv-x="628" 
d="M314 528q120 0 194 -72.5t74 -195.5t-74 -195.5t-194 -72.5t-194 72.5t-74 195.5t74 195.5t194 72.5zM314 465q-85 0 -135.5 -54t-50.5 -151t50.5 -151t135.5 -54q84 0 135 54t51 151t-51 151t-135 54z" />
    <glyph glyph-name="p" unicode="p" horiz-adv-x="639" 
d="M158 -170h-79v690h68l7 -91q59 99 200 99q115 0 177 -75t62 -192t-63 -193t-176 -76q-137 0 -196 96v-258zM334 55q84 0 130.5 54.5t46.5 151.5q0 95 -47 149.5t-131 54.5q-73 0 -124.5 -53.5t-51.5 -150.5q0 -98 52 -152t125 -54z" />
    <glyph glyph-name="q" unicode="q" horiz-adv-x="637" 
d="M481 -170v258q-59 -96 -196 -96q-113 0 -176 76t-63 193t62 192t177 75q140 0 199 -101l8 93h68v-690h-79zM305 55q73 0 125 54t52 152q0 97 -51.5 150.5t-124.5 53.5q-84 0 -131 -54.5t-47 -149.5q0 -97 46.5 -151.5t130.5 -54.5z" />
    <glyph glyph-name="r" unicode="r" horiz-adv-x="350" 
d="M323 520l-3 -74q-76 10 -119.5 -43t-43.5 -139v-264h-79v520h65l7 -108q19 51 64 84t109 24z" />
    <glyph glyph-name="s" unicode="s" horiz-adv-x="481" 
d="M240 527q100 0 183 -34l-14 -53q-74 29 -157 29q-63 0 -94.5 -21.5t-31.5 -59.5q0 -12 3 -22t7 -17.5t14 -14l16.5 -10.5t22 -9t23.5 -7l28.5 -7.5t29.5 -7.5q34 -9 54 -15.5t46.5 -19.5t40.5 -27.5t24.5 -37.5t10.5 -53q0 -73 -55 -110t-145 -37q-103 0 -203 43l17 54
q92 -39 177 -39q64 0 96 22.5t32 60.5q0 12 -3.5 22t-7.5 17t-14 14t-16.5 10.5t-22.5 9t-24.5 7.5t-29 7.5t-29.5 7.5q-34 9 -51.5 14.5t-44.5 18.5t-40.5 27t-24.5 38t-11 54q0 72 52.5 109t141.5 37z" />
    <glyph glyph-name="t" unicode="t" horiz-adv-x="350" 
d="M176 670v-150h147v-57h-147v-315q0 -54 17.5 -75t60.5 -21q30 0 69 11l3 -55q-37 -15 -94 -15q-71 0 -103 35t-32 118v317h-76v57h76l12 150h67z" />
    <glyph glyph-name="u" unicode="u" horiz-adv-x="606" 
d="M262 -7q-192 0 -192 201v326h79v-320q0 -70 35.5 -107t99.5 -37q82 0 124 54.5t42 127.5v282h79v-520h-69l-7 95q-57 -102 -191 -102z" />
    <glyph glyph-name="v" unicode="v" horiz-adv-x="532" 
d="M512 520l-200 -520h-93l-199 520h81l166 -450l166 450h79z" />
    <glyph glyph-name="w" unicode="w" horiz-adv-x="819" 
d="M789 520l-159 -520h-90l-131 401l-131 -401h-90l-158 520h82l126 -435l136 424h71l135 -425l127 436h82z" />
    <glyph glyph-name="x" unicode="x" horiz-adv-x="538" 
d="M509 520l-189 -253l193 -267h-88l-156 215l-159 -215h-82l192 257l-191 263h89l153 -208l157 208h81z" />
    <glyph glyph-name="y" unicode="y" horiz-adv-x="577" 
d="M543 520l-216 -554q-33 -85 -71.5 -112.5t-93.5 -27.5q-41 0 -92 9l3 61q48 -8 72 -8q37 0 60 21.5t42 67.5l9 22l-222 521h88l175 -435l164 435h82z" />
    <glyph glyph-name="z" unicode="z" horiz-adv-x="510" 
d="M469 520v-63l-342 -402l164 2h178v-57h-429v62l345 403l-172 -2h-166v57h422z" />
    <glyph glyph-name="braceleft" unicode="{" horiz-adv-x="332" 
d="M285 709v-59h-32q-45 0 -63 -19t-18 -58v-224q0 -72 -66 -84q66 -9 66 -83v-224q0 -39 18 -58t63 -19h32v-60h-38q-79 0 -109.5 35.5t-30.5 103.5v217q0 59 -67 64v50q67 3 67 64v214q0 68 30.5 104t109.5 36h38z" />
    <glyph glyph-name="bar" unicode="|" horiz-adv-x="243" 
d="M155 796v-949h-65v949h65z" />
    <glyph glyph-name="braceright" unicode="}" horiz-adv-x="332" 
d="M47 709h39q79 0 109.5 -36t30.5 -104v-214q0 -61 66 -64v-50q-34 -2 -50 -17t-16 -47v-217q0 -68 -30.5 -103.5t-109.5 -35.5h-39v60h33q45 0 63 19t18 58v224q0 74 66 83q-66 12 -66 84v224q0 39 -18 58t-63 19h-33v59z" />
    <glyph glyph-name="exclamdown" unicode="&#xa1;" horiz-adv-x="262" 
d="M165 329l11 -514h-89l11 514h67zM130 527q22 0 35.5 -11.5t13.5 -32.5q0 -45 -49 -45q-48 0 -48 45q0 44 48 44z" />
    <glyph glyph-name="cent" unicode="&#xa2;" horiz-adv-x="571" 
d="M336 688v-81q77 -3 141 -31l-16 -56q-63 24 -124 24q-99 0 -153.5 -56t-54.5 -148t55 -148t155 -56q60 0 126 26l14 -57q-71 -30 -143 -32v-80h-46v81q-112 11 -177.5 80.5t-65.5 185.5t66 185.5t177 79.5v83h46z" />
    <glyph glyph-name="sterling" unicode="&#xa3;" horiz-adv-x="604" 
d="M464 355v-44h-249q9 -49 9 -94q0 -63 -23 -102.5t-48 -52.5h384v-62h-485v58q4 1 10 3.5t21 13.5t27 26t21.5 43.5t9.5 64.5q0 44 -10 102h-67v44h57q-15 69 -15 139q0 95 66 155t174 60q98 0 171 -52l-31 -56q-66 42 -137 42q-74 0 -117.5 -42.5t-43.5 -104.5
q0 -69 17 -141h259z" />
    <glyph glyph-name="yen" unicode="&#xa5;" horiz-adv-x="648" 
d="M614 701l-247 -416v-34h129v-39h-129v-54h129v-39h-129v-119h-85v119h-128v39h128v54h-128v39h128v34l-247 416h88l201 -343l202 343h88z" />
    <glyph glyph-name="section" unicode="&#xa7;" horiz-adv-x="603" 
d="M305 701q108 0 214 -46l-25 -61q-27 12 -80 25.5t-104 13.5q-72 0 -112.5 -24.5t-40.5 -70.5q0 -15 5 -27.5t17 -22t24 -17t33 -14.5l35.5 -11.5t41 -12l40.5 -11.5q43 -12 70.5 -23t58 -30t45.5 -48t15 -68q0 -44 -27 -86t-58 -65q74 -42 74 -114q0 -159 -238 -159
q-104 0 -213 45l24 61q91 -38 184 -38q72 0 113 24.5t41 69.5q0 18 -9 32.5t-20.5 24t-35 19t-39.5 14.5t-48.5 13.5t-47.5 13.5q-42 12 -69 23t-57 30.5t-45 48t-15 67.5q0 43 26.5 85t57.5 65q-73 41 -73 114q0 160 238 160zM471 241q0 29 -16.5 51t-48.5 37.5t-63 25.5
t-77.5 23.5t-73.5 23.5q-65 -54 -65 -113q0 -30 16.5 -52t48.5 -37.5t63 -25.5t77.5 -23.5t73.5 -23.5q65 56 65 114z" />
    <glyph glyph-name="dieresis" unicode="&#xa8;" horiz-adv-x="450" 
d="M120 668q45 0 45 -41q0 -18 -12 -28.5t-33 -10.5q-20 0 -31 10.5t-11 28.5q0 41 42 41zM328 668q43 0 43 -41q0 -39 -43 -39q-21 0 -32 10.5t-11 28.5q0 41 43 41z" />
    <glyph glyph-name="copyright" unicode="&#xa9;" horiz-adv-x="820" 
d="M412 704q149 0 251 -99.5t102 -252.5q0 -151 -102.5 -251.5t-250.5 -100.5q-149 0 -251 100t-102 252q0 153 101.5 252.5t251.5 99.5zM430 533q59 0 104 -21l-12 -41q-41 16 -83 16q-66 0 -101 -36.5t-35 -96.5q0 -61 35 -97.5t102 -36.5q44 0 85 18l10 -42
q-48 -22 -105 -22q-83 0 -135 48t-52 132t52 131.5t135 47.5zM412 670q-133 0 -225 -90.5t-92 -227.5t91.5 -227.5t225.5 -90.5q133 0 225 90.5t92 227.5t-92 227.5t-225 90.5z" />
    <glyph glyph-name="ordfeminine" unicode="&#xaa;" horiz-adv-x="492" 
d="M243 728q69 0 101.5 -29t32.5 -89v-184q0 -19 18 -19q15 0 19 2v-44q-21 -6 -42 -6q-23 0 -38.5 10.5t-14.5 33.5v7q-37 -53 -118 -53q-54 0 -88.5 26.5t-34.5 80.5q0 112 158 112q39 0 84 -5v26q0 44 -19.5 63t-70.5 19q-59 0 -113 -18l-11 46q70 21 137 21zM246 539
q-114 0 -114 -73q0 -34 22 -50.5t58 -16.5q47 0 77 25.5t30 66.5v43q-35 5 -73 5zM411 271v-49h-332v49h332z" />
    <glyph glyph-name="guillemotleft" unicode="&#xab;" horiz-adv-x="588" 
d="M487 498l42 -42l-158 -196l158 -196l-42 -42l-204 230v16zM255 498l42 -42l-158 -196l158 -196l-42 -42l-204 230v16z" />
    <glyph glyph-name="registered" unicode="&#xae;" horiz-adv-x="600" 
d="M300 734q98 0 162 -64t64 -162q0 -96 -64 -160t-162 -64t-162 64t-64 160q0 98 64 162t162 64zM300 709q-87 0 -142.5 -57.5t-55.5 -143.5q0 -85 55.5 -142t142.5 -57q88 0 143 57t55 142q0 86 -55 143.5t-143 57.5zM216 629h108q31 0 51 -20.5t20 -51.5q0 -51 -45 -67
l42 -94h-36l-36 90h-72v-90h-32v233zM320 601h-71v-87h72q20 0 32 12.5t12 30.5q0 44 -45 44z" />
    <glyph glyph-name="macron" unicode="&#xaf;" horiz-adv-x="464" 
d="M381 657v-48h-298v48h298z" />
    <glyph glyph-name="degree" unicode="&#xb0;" horiz-adv-x="305" 
d="M153 711q57 0 94.5 -33.5t37.5 -93.5t-37.5 -93.5t-94.5 -33.5t-95 33.5t-38 93.5q0 61 38 94t95 33zM153 670q-34 0 -58.5 -23t-24.5 -63t24.5 -63t57.5 -23q34 0 58.5 23.5t24.5 62.5q0 40 -24.5 63t-57.5 23z" />
    <glyph glyph-name="plusminus" unicode="&#xb1;" horiz-adv-x="517" 
d="M476 122v-53h-436v53h436zM286 550v-160h190v-59h-190v-157h-60v157h-186v59h186v160h60z" />
    <glyph glyph-name="acute" unicode="&#xb4;" horiz-adv-x="286" 
d="M222 714l-82 -148h-58l67 148h73z" />
    <glyph glyph-name="mu" unicode="&#xb5;" horiz-adv-x="619" 
d="M549 520v-520h-57l-12 101q-18 -48 -61 -79t-98 -31q-53 0 -94 20.5t-59 59.5v-242h-79v691h79v-307q0 -72 39.5 -115.5t115.5 -43.5q66 0 106.5 46.5t40.5 108.5v311h79z" />
    <glyph glyph-name="paragraph" unicode="&#xb6;" horiz-adv-x="571" 
d="M409 -86v728h-99v-728h-60v376h-29q-85 2 -132 61t-47 147q0 95 56 149t136 54h235v-787h-60z" />
    <glyph glyph-name="periodcentered" unicode="&#xb7;" horiz-adv-x="258" 
d="M129 359q26 0 42 -17t16 -41q0 -26 -16 -43t-42 -17t-42 17.5t-16 42.5q0 24 16 41t42 17z" />
    <glyph glyph-name="cedilla" unicode="&#xb8;" horiz-adv-x="320" 
d="M187 6l-22 -69q19 1 35 -1.5t32 -18.5t16 -44q0 -71 -97 -71q-43 0 -77 15l7 35q28 -12 63 -12q50 0 50 32q0 40 -67 30l-14 21l28 83h46z" />
    <glyph glyph-name="ordmasculine" unicode="&#xba;" horiz-adv-x="533" 
d="M267 728q86 0 137 -50.5t51 -136.5q0 -83 -51.5 -132.5t-136.5 -49.5t-137 49.5t-52 132.5q0 85 51.5 136t137.5 51zM455 271v-49h-375v49h375zM267 676q-59 0 -93.5 -36t-34.5 -96t33.5 -97t94.5 -37t94.5 37t33.5 97t-34.5 96t-93.5 36z" />
    <glyph glyph-name="guillemotright" unicode="&#xbb;" horiz-adv-x="588" 
d="M332 498l204 -230v-16l-203 -230l-43 42l158 196l-158 196zM101 498l204 -230v-16l-203 -230l-43 42l158 196l-158 196z" />
    <glyph glyph-name="questiondown" unicode="&#xbf;" horiz-adv-x="475" 
d="M301 329v-69q0 -41 -18.5 -73t-45 -53l-53 -41t-45 -47.5t-18.5 -61.5q0 -52 39 -79.5t95 -27.5q73 0 150 46l26 -59q-81 -55 -181 -55q-85 0 -146 42.5t-61 127.5q0 37 14 67.5t35.5 48.5l46 37.5t46 35t35.5 40t14 54.5v67h67zM266 527q49 0 49 -44q0 -46 -49 -46
q-48 0 -48 46q0 44 48 44z" />
    <glyph glyph-name="Agrave" unicode="&#xc0;" horiz-adv-x="692" 
d="M400 703l282 -703h-88l-71 180h-357l-71 -180h-85l282 703h108zM344 630l-151 -382h303l-151 382h-1zM337 857l58 -111h-59l-73 111h74z" />
    <glyph glyph-name="Aacute" unicode="&#xc1;" horiz-adv-x="692" 
d="M400 703l282 -703h-88l-71 180h-357l-71 -180h-85l282 703h108zM344 630l-151 -382h303l-151 382h-1zM460 859l-82 -113h-58l67 113h73z" />
    <glyph glyph-name="Acircumflex" unicode="&#xc2;" horiz-adv-x="692" 
d="M400 703l282 -703h-88l-71 180h-357l-71 -180h-85l282 703h108zM344 630l-151 -382h303l-151 382h-1zM384 859l109 -113h-70l-75 82l-76 -82h-70l109 113h73z" />
    <glyph glyph-name="Atilde" unicode="&#xc3;" horiz-adv-x="692" 
d="M400 703l282 -703h-88l-71 180h-357l-71 -180h-85l282 703h108zM344 630l-151 -382h303l-151 382h-1zM463 856l30 -13q-25 -75 -88 -75q-25 0 -67 20q-46 22 -63 22q-30 0 -49 -34l-29 12q24 76 87 76q25 0 67 -21q40 -21 63 -21q30 0 49 34z" />
    <glyph glyph-name="Adieresis" unicode="&#xc4;" horiz-adv-x="692" 
d="M400 703l282 -703h-88l-71 180h-357l-71 -180h-85l282 703h108zM344 630l-151 -382h303l-151 382h-1zM240 846q42 0 42 -40q0 -39 -42 -39q-41 0 -41 39q0 40 41 40zM447 846q41 0 41 -40q0 -39 -41 -39q-19 0 -30 10.5t-11 28.5t11 29t30 11z" />
    <glyph glyph-name="Aring" unicode="&#xc5;" horiz-adv-x="692" 
d="M400 703l282 -703h-88l-71 180h-357l-71 -180h-85l282 703h108zM344 630l-151 -382h303l-151 382h-1zM344 929q42 0 70 -24t28 -67q0 -44 -27.5 -68t-70.5 -24t-70.5 24t-27.5 68q0 43 28 67t70 24zM343 891q-21 0 -35.5 -13.5t-14.5 -40.5q0 -25 15 -39t35 -14
q21 0 36.5 14t15.5 39q0 27 -15 40.5t-37 13.5z" />
    <glyph glyph-name="AE" unicode="&#xc6;" horiz-adv-x="1027" 
d="M93 0h-87l411 700h548v-68h-405v-257h349v-68h-349v-239h418v-68h-503v193h-268zM469 634l-221 -373h227v373h-6z" />
    <glyph glyph-name="Ccedilla" unicode="&#xc7;" horiz-adv-x="680" 
d="M426 709q117 0 204 -39l-22 -63q-76 34 -165 34q-141 0 -221.5 -80.5t-80.5 -210.5q0 -131 80.5 -211t218.5 -80q93 0 175 34l17 -64q-93 -38 -208 -38h-8l-17 -54q19 1 35 -1.5t32 -18.5t16 -44q0 -71 -97 -71q-43 0 -77 15l7 35q28 -12 63 -12q50 0 50 32q0 40 -67 30
l-14 21l24 71q-144 15 -231.5 110t-87.5 245q0 166 105 263t269 97z" />
    <glyph glyph-name="Egrave" unicode="&#xc8;" horiz-adv-x="652" 
d="M588 700v-68h-405v-256h349v-68h-349v-240h419v-68h-504v700h490zM338 857l58 -111h-59l-73 111h74z" />
    <glyph glyph-name="Eacute" unicode="&#xc9;" horiz-adv-x="652" 
d="M588 700v-68h-405v-256h349v-68h-349v-240h419v-68h-504v700h490zM446 859l-82 -113h-58l67 113h73z" />
    <glyph glyph-name="Ecircumflex" unicode="&#xca;" horiz-adv-x="652" 
d="M588 700v-68h-405v-256h349v-68h-349v-240h419v-68h-504v700h490zM385 859l109 -113h-70l-75 82l-76 -82h-70l109 113h73z" />
    <glyph glyph-name="Edieresis" unicode="&#xcb;" horiz-adv-x="652" 
d="M588 700v-68h-405v-256h349v-68h-349v-240h419v-68h-504v700h490zM241 846q42 0 42 -40q0 -39 -42 -39q-41 0 -41 39q0 40 41 40zM448 846q41 0 41 -40q0 -39 -41 -39q-19 0 -30 10.5t-11 28.5t11 29t30 11z" />
    <glyph glyph-name="Igrave" unicode="&#xcc;" horiz-adv-x="279" 
d="M182 700v-700h-85v700h85zM133 857l58 -111h-59l-73 111h74z" />
    <glyph glyph-name="Iacute" unicode="&#xcd;" horiz-adv-x="279" 
d="M182 700v-700h-85v700h85zM256 859l-82 -113h-58l67 113h73z" />
    <glyph glyph-name="Icircumflex" unicode="&#xce;" horiz-adv-x="279" 
d="M182 700v-700h-85v700h85zM180 859l109 -113h-70l-75 82l-76 -82h-70l109 113h73z" />
    <glyph glyph-name="Idieresis" unicode="&#xcf;" horiz-adv-x="279" 
d="M182 700v-700h-85v700h85zM36 846q42 0 42 -40q0 -39 -42 -39q-41 0 -41 39q0 40 41 40zM243 846q41 0 41 -40q0 -39 -41 -39q-19 0 -30 10.5t-11 28.5t11 29t30 11z" />
    <glyph glyph-name="Eth" unicode="&#xd0;" horiz-adv-x="753" 
d="M98 700h285q84 0 160 -44q78 -46 117 -126t39 -178q0 -100 -39 -182t-117 -126q-75 -44 -160 -44h-285v317h-90v53h90v330zM363 632h-180v-262h156v-53h-156v-249h179q45 0 91.5 17.5t77.5 46.5q79 74 79 220q0 165 -107 238q-64 42 -140 42z" />
    <glyph glyph-name="Ntilde" unicode="&#xd1;" horiz-adv-x="751" 
d="M654 700v-700h-89l-382 570v-570h-85v700h89l382 -564v564h85zM503 856l30 -13q-26 -75 -88 -75q-25 0 -67 20q-46 22 -63 22q-30 0 -49 -34l-29 12q24 76 87 76q25 0 67 -21q40 -21 63 -21q30 0 49 34z" />
    <glyph glyph-name="Ograve" unicode="&#xd2;" horiz-adv-x="799" 
d="M400 709q160 0 256.5 -98.5t96.5 -261.5t-96 -260.5t-257 -97.5q-160 0 -256.5 97.5t-96.5 260.5t96.5 261.5t256.5 98.5zM400 641q-119 0 -191.5 -78.5t-72.5 -214.5q0 -135 72.5 -212t191.5 -77q121 0 192.5 77t71.5 212q0 136 -72 214.5t-192 78.5zM404 857l58 -111
h-59l-73 111h74z" />
    <glyph glyph-name="Oacute" unicode="&#xd3;" horiz-adv-x="799" 
d="M400 709q160 0 256.5 -98.5t96.5 -261.5t-96 -260.5t-257 -97.5q-160 0 -256.5 97.5t-96.5 260.5t96.5 261.5t256.5 98.5zM400 641q-119 0 -191.5 -78.5t-72.5 -214.5q0 -135 72.5 -212t191.5 -77q121 0 192.5 77t71.5 212q0 136 -72 214.5t-192 78.5zM492 859l-82 -113
h-58l67 113h73z" />
    <glyph glyph-name="Ocircumflex" unicode="&#xd4;" horiz-adv-x="800" 
d="M400 709q160 0 256.5 -98.5t96.5 -261.5t-96 -260.5t-257 -97.5q-160 0 -256.5 97.5t-96.5 260.5t96.5 261.5t256.5 98.5zM400 641q-119 0 -191.5 -78.5t-72.5 -214.5q0 -135 72.5 -212t191.5 -77q121 0 192.5 77t71.5 212q0 136 -72 214.5t-192 78.5zM440 859l109 -113
h-70l-75 82l-76 -82h-70l109 113h73z" />
    <glyph glyph-name="Otilde" unicode="&#xd5;" horiz-adv-x="799" 
d="M400 709q160 0 256.5 -98.5t96.5 -261.5t-96 -260.5t-257 -97.5q-160 0 -256.5 97.5t-96.5 260.5t96.5 261.5t256.5 98.5zM400 641q-119 0 -191.5 -78.5t-72.5 -214.5q0 -135 72.5 -212t191.5 -77q121 0 192.5 77t71.5 212q0 136 -72 214.5t-192 78.5zM520 856l30 -13
q-26 -75 -88 -75q-25 0 -67 20q-46 22 -63 22q-30 0 -49 -34l-29 12q24 76 87 76q25 0 67 -21q40 -21 63 -21q30 0 49 34z" />
    <glyph glyph-name="Odieresis" unicode="&#xd6;" horiz-adv-x="800" 
d="M400 709q160 0 256.5 -98.5t96.5 -261.5t-96 -260.5t-257 -97.5q-160 0 -256.5 97.5t-96.5 260.5t96.5 261.5t256.5 98.5zM400 641q-119 0 -191.5 -78.5t-72.5 -214.5q0 -135 72.5 -212t191.5 -77q121 0 192.5 77t71.5 212q0 136 -72 214.5t-192 78.5zM296 846
q42 0 42 -40q0 -39 -42 -39q-41 0 -41 39q0 40 41 40zM503 846q41 0 41 -40q0 -39 -41 -39q-19 0 -30 10.5t-11 28.5t11 29t30 11z" />
    <glyph glyph-name="multiply" unicode="&#xd7;" horiz-adv-x="505" 
d="M49 497l41 42l162 -163l162 163l42 -42l-162 -163l162 -162l-42 -42l-162 162l-162 -162l-41 42l161 162z" />
    <glyph glyph-name="Oslash" unicode="&#xd8;" horiz-adv-x="799" 
d="M400 709q100 0 179 -42l40 62h54l-55 -85q64 -47 99.5 -123t35.5 -172q0 -163 -96 -260.5t-257 -97.5q-101 0 -179 40l-41 -64h-54l57 88q-65 46 -100.5 121.5t-35.5 172.5q0 163 96.5 261.5t256.5 98.5zM400 641q-119 0 -191.5 -78.5t-72.5 -214.5q0 -150 89 -228
l314 485q-61 36 -139 36zM664 348q0 151 -89 230l-314 -485q60 -34 139 -34q121 0 192.5 77t71.5 212z" />
    <glyph glyph-name="Ugrave" unicode="&#xd9;" horiz-adv-x="718" 
d="M635 700v-456q0 -118 -77 -185.5t-199 -67.5q-124 0 -200 68.5t-76 184.5v456h85v-460q0 -83 54.5 -132t136.5 -49q83 0 137 49t54 132v460h85zM352 857l58 -111h-59l-73 111h74z" />
    <glyph glyph-name="Uacute" unicode="&#xda;" horiz-adv-x="718" 
d="M635 700v-456q0 -118 -77 -185.5t-199 -67.5q-124 0 -200 68.5t-76 184.5v456h85v-460q0 -83 54.5 -132t136.5 -49q83 0 137 49t54 132v460h85zM475 859l-82 -113h-58l67 113h73z" />
    <glyph glyph-name="Ucircumflex" unicode="&#xdb;" horiz-adv-x="718" 
d="M635 700v-456q0 -118 -77 -185.5t-199 -67.5q-124 0 -200 68.5t-76 184.5v456h85v-460q0 -83 54.5 -132t136.5 -49q83 0 137 49t54 132v460h85zM399 859l109 -113h-70l-75 82l-76 -82h-70l109 113h73z" />
    <glyph glyph-name="Udieresis" unicode="&#xdc;" horiz-adv-x="718" 
d="M635 700v-456q0 -118 -77 -185.5t-199 -67.5q-124 0 -200 68.5t-76 184.5v456h85v-460q0 -83 54.5 -132t136.5 -49q83 0 137 49t54 132v460h85zM255 846q42 0 42 -40q0 -39 -42 -39q-41 0 -41 39q0 40 41 40zM462 846q41 0 41 -40q0 -39 -41 -39q-19 0 -30 10.5t-11 28.5
t11 29t30 11z" />
    <glyph glyph-name="Yacute" unicode="&#xdd;" horiz-adv-x="626" 
d="M355 0h-85v279l-251 421h88l206 -351l205 351h88l-251 -423v-277zM422 859l-82 -113h-58l67 113h73z" />
    <glyph glyph-name="Thorn" unicode="&#xde;" horiz-adv-x="677" 
d="M183 568h256q95 0 150.5 -62t55.5 -151t-55.5 -150.5t-149.5 -61.5h-257v-143h-85v700h85v-132zM183 211h240q61 0 97 40t36 104q0 63 -36.5 104t-96.5 41h-240v-289z" />
    <glyph glyph-name="germandbls" unicode="&#xdf;" horiz-adv-x="593" 
d="M292 709q85 0 137 -44.5t52 -114.5q0 -32 -11 -58t-24.5 -40t-24.5 -34.5t-11 -41.5q0 -30 16 -53t39 -39.5l46.5 -34.5t39.5 -49t16 -73q0 -71 -45 -112.5t-134 -41.5q-78 0 -146 25l10 63q54 -25 122 -25q55 0 83.5 26.5t28.5 71.5q0 32 -15.5 56t-37.5 40l-44 32.5
t-37.5 43.5t-15.5 63q0 37 34.5 86t34.5 90q0 48 -30 75t-80 27q-54 0 -95.5 -37t-41.5 -116v-494h-79v496q0 109 61.5 161t151.5 52z" />
    <glyph glyph-name="agrave" unicode="&#xe0;" horiz-adv-x="584" 
d="M287 527q107 0 158 -37t51 -131v-266q0 -32 33 -32q6 0 28 2l5 -56q-47 -10 -67 -10q-39 0 -58.5 19t-19.5 49v15q-57 -87 -190 -87q-89 0 -139.5 39t-50.5 118q0 87 61.5 123t173.5 36q68 0 145 -9v59q0 61 -35.5 84t-104.5 23q-93 0 -185 -26l-12 59q94 28 207 28z
M242 54q75 0 125 37.5t50 97.5v55q-75 9 -141 9q-157 0 -157 -102q0 -52 35 -74.5t88 -22.5zM187 731h74l58 -148h-59z" />
    <glyph glyph-name="aacute" unicode="&#xe1;" horiz-adv-x="584" 
d="M287 527q107 0 158 -37t51 -131v-266q0 -32 33 -32q6 0 28 2l5 -56q-47 -10 -67 -10q-39 0 -58.5 19t-19.5 49v15q-57 -87 -190 -87q-89 0 -139.5 39t-50.5 118q0 87 61.5 123t173.5 36q68 0 145 -9v59q0 61 -35.5 84t-104.5 23q-93 0 -185 -26l-12 59q94 28 207 28z
M242 54q75 0 125 37.5t50 97.5v55q-75 9 -141 9q-157 0 -157 -102q0 -52 35 -74.5t88 -22.5zM410 731l-82 -148h-58l67 148h73z" />
    <glyph glyph-name="acircumflex" unicode="&#xe2;" horiz-adv-x="584" 
d="M287 527q107 0 158 -37t51 -131v-266q0 -32 33 -32q6 0 28 2l5 -56q-47 -10 -67 -10q-39 0 -58.5 19t-19.5 49v15q-57 -87 -190 -87q-89 0 -139.5 39t-50.5 118q0 87 61.5 123t173.5 36q68 0 145 -9v59q0 61 -35.5 84t-104.5 23q-93 0 -185 -26l-12 59q94 28 207 28z
M242 54q75 0 125 37.5t50 97.5v55q-75 9 -141 9q-157 0 -157 -102q0 -52 35 -74.5t88 -22.5zM335 732l109 -149h-68l-77 115l-78 -115h-68l109 149h73z" />
    <glyph glyph-name="atilde" unicode="&#xe3;" horiz-adv-x="584" 
d="M287 527q107 0 158 -37t51 -131v-266q0 -32 33 -32q6 0 28 2l5 -56q-47 -10 -67 -10q-39 0 -58.5 19t-19.5 49v15q-57 -87 -190 -87q-89 0 -139.5 39t-50.5 118q0 87 61.5 123t173.5 36q68 0 145 -9v59q0 61 -35.5 84t-104.5 23q-93 0 -185 -26l-12 59q94 28 207 28z
M242 54q75 0 125 37.5t50 97.5v55q-75 9 -141 9q-157 0 -157 -102q0 -52 35 -74.5t88 -22.5zM412 693l30 -13q-26 -75 -88 -75q-25 0 -67 20q-46 22 -63 22q-30 0 -49 -34l-29 12q24 76 87 76q25 0 67 -21q40 -21 63 -21q30 0 49 34z" />
    <glyph glyph-name="adieresis" unicode="&#xe4;" horiz-adv-x="584" 
d="M287 527q107 0 158 -37t51 -131v-266q0 -32 33 -32q6 0 28 2l5 -56q-47 -10 -67 -10q-39 0 -58.5 19t-19.5 49v15q-57 -87 -190 -87q-89 0 -139.5 39t-50.5 118q0 87 61.5 123t173.5 36q68 0 145 -9v59q0 61 -35.5 84t-104.5 23q-93 0 -185 -26l-12 59q94 28 207 28z
M242 54q75 0 125 37.5t50 97.5v55q-75 9 -141 9q-157 0 -157 -102q0 -52 35 -74.5t88 -22.5zM189 685q45 0 45 -41q0 -18 -12 -28.5t-33 -10.5q-20 0 -31 10.5t-11 28.5q0 41 42 41zM397 685q43 0 43 -41q0 -39 -43 -39q-21 0 -32 10.5t-11 28.5q0 41 43 41z" />
    <glyph glyph-name="aring" unicode="&#xe5;" horiz-adv-x="584" 
d="M287 527q107 0 158 -37t51 -131v-266q0 -32 33 -32q6 0 28 2l5 -56q-47 -10 -67 -10q-39 0 -58.5 19t-19.5 49v15q-57 -87 -190 -87q-89 0 -139.5 39t-50.5 118q0 87 61.5 123t173.5 36q68 0 145 -9v59q0 61 -35.5 84t-104.5 23q-93 0 -185 -26l-12 59q94 28 207 28z
M242 54q75 0 125 37.5t50 97.5v55q-75 9 -141 9q-157 0 -157 -102q0 -52 35 -74.5t88 -22.5zM298 766q42 0 70 -24t28 -67q0 -44 -27.5 -68t-70.5 -24t-70.5 24t-27.5 68q0 43 28 67t70 24zM297 728q-21 0 -35.5 -13.5t-14.5 -40.5q0 -25 15 -39t35 -14q21 0 36.5 14
t15.5 39q0 27 -15 40.5t-37 13.5z" />
    <glyph glyph-name="ae" unicode="&#xe6;" horiz-adv-x="926" 
d="M650 527q112 0 174.5 -71t62.5 -183q0 -35 -3 -44h-416q1 -86 55.5 -129.5t150.5 -43.5q91 0 174 39l14 -58q-98 -44 -195 -44q-155 0 -230 96q-62 -96 -212 -96q-89 0 -140 38.5t-51 116.5q0 161 228 161q61 0 127 -6q4 41 23 80q-6 47 -41 65t-99 18q-91 0 -183 -26
l-12 59q94 28 209 28q140 0 180 -68q70 68 184 68zM653 464q-80 0 -128 -45.5t-55 -132.5h340q0 80 -39 129t-118 49zM271 254q-155 0 -155 -103q0 -99 130 -99q57 0 100.5 26t58.5 71q-17 49 -17 100q-75 5 -117 5z" />
    <glyph glyph-name="ccedilla" unicode="&#xe7;" horiz-adv-x="521" 
d="M326 528q90 0 155 -31l-18 -56q-66 24 -126 24q-100 0 -154.5 -55.5t-54.5 -149.5t55 -149.5t158 -55.5q55 0 126 28l14 -59q-76 -32 -153 -32h-9l-17 -55q19 1 35 -1.5t32 -18.5t16 -44q0 -71 -97 -71q-43 0 -77 15l7 35q28 -12 63 -12q50 0 50 32q0 40 -67 30l-14 21
l24 73q-104 14 -166 83.5t-62 180.5q0 125 77.5 196.5t202.5 71.5z" />
    <glyph glyph-name="egrave" unicode="&#xe8;" horiz-adv-x="591" 
d="M544 232h-414q1 -86 55.5 -131t145.5 -45q93 0 176 40l15 -59q-98 -44 -198 -44q-133 0 -205.5 70.5t-72.5 192.5t70.5 196.5t190.5 74.5q115 0 177.5 -69t62.5 -183q0 -34 -3 -43zM309 464q-76 0 -123.5 -44.5t-54.5 -133.5h338q0 81 -39 129.5t-121 48.5zM209 731h74
l58 -148h-59z" />
    <glyph glyph-name="eacute" unicode="&#xe9;" horiz-adv-x="591" 
d="M544 232h-414q1 -86 55.5 -131t145.5 -45q93 0 176 40l15 -59q-98 -44 -198 -44q-133 0 -205.5 70.5t-72.5 192.5t70.5 196.5t190.5 74.5q115 0 177.5 -69t62.5 -183q0 -34 -3 -43zM309 464q-76 0 -123.5 -44.5t-54.5 -133.5h338q0 81 -39 129.5t-121 48.5zM384 731
l-82 -148h-58l67 148h73z" />
    <glyph glyph-name="ecircumflex" unicode="&#xea;" horiz-adv-x="591" 
d="M544 232h-414q1 -86 55.5 -131t145.5 -45q93 0 176 40l15 -59q-98 -44 -198 -44q-133 0 -205.5 70.5t-72.5 192.5t70.5 196.5t190.5 74.5q115 0 177.5 -69t62.5 -183q0 -34 -3 -43zM309 464q-76 0 -123.5 -44.5t-54.5 -133.5h338q0 81 -39 129.5t-121 48.5zM344 732
l109 -149h-68l-77 115l-78 -115h-68l109 149h73z" />
    <glyph glyph-name="edieresis" unicode="&#xeb;" horiz-adv-x="591" 
d="M544 232h-414q1 -86 55.5 -131t145.5 -45q93 0 176 40l15 -59q-98 -44 -198 -44q-133 0 -205.5 70.5t-72.5 192.5t70.5 196.5t190.5 74.5q115 0 177.5 -69t62.5 -183q0 -34 -3 -43zM309 464q-76 0 -123.5 -44.5t-54.5 -133.5h338q0 81 -39 129.5t-121 48.5zM203 685
q45 0 45 -41q0 -18 -12 -28.5t-33 -10.5q-20 0 -31 10.5t-11 28.5q0 41 42 41zM411 685q43 0 43 -41q0 -39 -43 -39q-21 0 -32 10.5t-11 28.5q0 41 43 41z" />
    <glyph glyph-name="igrave" unicode="&#xec;" horiz-adv-x="254" 
d="M174 520v-520h-79v463h-63v57h142zM42 731h74l58 -148h-59z" />
    <glyph glyph-name="iacute" unicode="&#xed;" horiz-adv-x="254" 
d="M174 520v-520h-79v463h-63v57h142zM239 731l-82 -148h-58l67 148h73z" />
    <glyph glyph-name="icircumflex" unicode="&#xee;" horiz-adv-x="255" 
d="M174 520v-520h-79v463h-63v57h142zM162 732l109 -149h-68l-77 115l-78 -115h-68l109 149h73z" />
    <glyph glyph-name="idieresis" unicode="&#xef;" horiz-adv-x="254" 
d="M174 520v-520h-79v463h-63v57h142zM18 685q45 0 45 -41q0 -18 -12 -28.5t-33 -10.5q-20 0 -31 10.5t-11 28.5q0 41 42 41zM226 685q43 0 43 -41q0 -39 -43 -39q-21 0 -32 10.5t-11 28.5q0 41 43 41z" />
    <glyph glyph-name="eth" unicode="&#xf0;" horiz-adv-x="602" 
d="M450 757l18 -27l-81 -54q165 -160 165 -388q0 -149 -67 -222t-187 -73q-117 0 -182.5 67.5t-65.5 178.5q0 113 66.5 178t167.5 65q128 0 187 -89q-14 82 -59 157q-30 47 -75 92l-97 -66l-18 25l92 63q-55 48 -125 87l51 32q65 -35 123 -85zM298 422q-78 0 -122 -50
t-44 -133q0 -82 42.5 -134t123.5 -52t125 50.5t44 136.5q0 85 -44.5 133.5t-124.5 48.5z" />
    <glyph glyph-name="ntilde" unicode="&#xf1;" horiz-adv-x="612" 
d="M345 527q192 0 192 -201v-326h-79v320q0 71 -35.5 108.5t-99.5 37.5q-82 0 -124 -54.5t-42 -129.5v-282h-79v520h69l6 -95q59 102 192 102zM428 693l30 -13q-26 -75 -88 -75q-25 0 -67 20q-46 22 -63 22q-30 0 -49 -34l-29 12q24 76 87 76q25 0 67 -21q40 -21 63 -21
q30 0 49 34z" />
    <glyph glyph-name="ograve" unicode="&#xf2;" horiz-adv-x="627" 
d="M314 528q120 0 194 -72.5t74 -195.5t-74 -195.5t-194 -72.5t-194 72.5t-74 195.5t74 195.5t194 72.5zM314 465q-85 0 -135.5 -54t-50.5 -151t50.5 -151t135.5 -54q84 0 135 54t51 151t-51 151t-135 54zM209 731h74l58 -148h-59z" />
    <glyph glyph-name="oacute" unicode="&#xf3;" horiz-adv-x="627" 
d="M314 528q120 0 194 -72.5t74 -195.5t-74 -195.5t-194 -72.5t-194 72.5t-74 195.5t74 195.5t194 72.5zM314 465q-85 0 -135.5 -54t-50.5 -151t50.5 -151t135.5 -54q84 0 135 54t51 151t-51 151t-135 54zM394 731l-82 -148h-58l67 148h73z" />
    <glyph glyph-name="ocircumflex" unicode="&#xf4;" horiz-adv-x="628" 
d="M314 528q120 0 194 -72.5t74 -195.5t-74 -195.5t-194 -72.5t-194 72.5t-74 195.5t74 195.5t194 72.5zM314 465q-85 0 -135.5 -54t-50.5 -151t50.5 -151t135.5 -54q84 0 135 54t51 151t-51 151t-135 54zM354 732l109 -149h-68l-77 115l-78 -115h-68l109 149h73z" />
    <glyph glyph-name="otilde" unicode="&#xf5;" horiz-adv-x="627" 
d="M314 528q120 0 194 -72.5t74 -195.5t-74 -195.5t-194 -72.5t-194 72.5t-74 195.5t74 195.5t194 72.5zM314 465q-85 0 -135.5 -54t-50.5 -151t50.5 -151t135.5 -54q84 0 135 54t51 151t-51 151t-135 54zM432 693l30 -13q-26 -75 -88 -75q-25 0 -67 20q-46 22 -63 22
q-30 0 -49 -34l-29 12q24 76 87 76q25 0 67 -21q40 -21 63 -21q30 0 49 34z" />
    <glyph glyph-name="odieresis" unicode="&#xf6;" horiz-adv-x="628" 
d="M314 528q120 0 194 -72.5t74 -195.5t-74 -195.5t-194 -72.5t-194 72.5t-74 195.5t74 195.5t194 72.5zM314 465q-85 0 -135.5 -54t-50.5 -151t50.5 -151t135.5 -54q84 0 135 54t51 151t-51 151t-135 54zM209 685q45 0 45 -41q0 -18 -12 -28.5t-33 -10.5q-20 0 -31 10.5
t-11 28.5q0 41 42 41zM417 685q43 0 43 -41q0 -39 -43 -39q-21 0 -32 10.5t-11 28.5q0 41 43 41z" />
    <glyph glyph-name="divide" unicode="&#xf7;" horiz-adv-x="585" 
d="M513 350v-53h-441v53h441zM294 196q42 0 42 -41q0 -21 -11.5 -32t-30.5 -11q-20 0 -32 11.5t-12 31.5q0 19 12 30t32 11zM294 540q42 0 42 -42q0 -20 -11.5 -31.5t-30.5 -11.5q-20 0 -32 11.5t-12 31.5t12 31t32 11z" />
    <glyph glyph-name="oslash" unicode="&#xf8;" horiz-adv-x="627" 
d="M314 528q72 0 127 -27l34 52h41l-44 -69q110 -71 110 -224q0 -123 -74 -195.5t-194 -72.5q-81 0 -141 33l-37 -58h-41l49 76q-98 74 -98 217q0 123 74 195.5t194 72.5zM500 260q0 111 -67 165l-222 -343q42 -27 103 -27q84 0 135 54t51 151zM314 465q-85 0 -135.5 -54
t-50.5 -151q0 -102 56 -156l220 340q-39 21 -90 21z" />
    <glyph glyph-name="ugrave" unicode="&#xf9;" horiz-adv-x="606" 
d="M262 -7q-192 0 -192 201v326h79v-320q0 -70 35.5 -107t99.5 -37q82 0 124 54.5t42 127.5v282h79v-520h-69l-7 95q-57 -102 -191 -102zM199 731h74l58 -148h-59z" />
    <glyph glyph-name="uacute" unicode="&#xfa;" horiz-adv-x="606" 
d="M262 -7q-192 0 -192 201v326h79v-320q0 -70 35.5 -107t99.5 -37q82 0 124 54.5t42 127.5v282h79v-520h-69l-7 95q-57 -102 -191 -102zM400 731l-82 -148h-58l67 148h73z" />
    <glyph glyph-name="ucircumflex" unicode="&#xfb;" horiz-adv-x="606" 
d="M262 -7q-192 0 -192 201v326h79v-320q0 -70 35.5 -107t99.5 -37q82 0 124 54.5t42 127.5v282h79v-520h-69l-7 95q-57 -102 -191 -102zM341 732l109 -149h-68l-77 115l-78 -115h-68l109 149h73z" />
    <glyph glyph-name="udieresis" unicode="&#xfc;" horiz-adv-x="606" 
d="M262 -7q-192 0 -192 201v326h79v-320q0 -70 35.5 -107t99.5 -37q82 0 124 54.5t42 127.5v282h79v-520h-69l-7 95q-57 -102 -191 -102zM197 685q45 0 45 -41q0 -18 -12 -28.5t-33 -10.5q-20 0 -31 10.5t-11 28.5q0 41 42 41zM405 685q43 0 43 -41q0 -39 -43 -39
q-21 0 -32 10.5t-11 28.5q0 41 43 41z" />
    <glyph glyph-name="yacute" unicode="&#xfd;" horiz-adv-x="577" 
d="M543 520l-216 -554q-33 -85 -71.5 -112.5t-93.5 -27.5q-41 0 -92 9l3 61q48 -8 72 -8q37 0 60 21.5t42 67.5l9 22l-222 521h88l175 -435l164 435h82zM402 731l-82 -148h-58l67 148h73z" />
    <glyph glyph-name="thorn" unicode="&#xfe;" horiz-adv-x="638" 
d="M158 700v-266q59 94 196 94q115 0 177 -75t62 -192t-63 -193t-176 -76q-137 0 -196 96v-258h-79v870h79zM333 465q-73 0 -124.5 -53.5t-51.5 -150.5q0 -98 52 -152t125 -54q84 0 130.5 54.5t46.5 151.5q0 95 -47 149.5t-131 54.5z" />
    <glyph glyph-name="ydieresis" unicode="&#xff;" horiz-adv-x="577" 
d="M543 520l-216 -554q-33 -85 -71.5 -112.5t-93.5 -27.5q-41 0 -92 9l3 61q48 -8 72 -8q37 0 60 21.5t42 67.5l9 22l-222 521h88l175 -435l164 435h82zM178 685q45 0 45 -41q0 -18 -12 -28.5t-33 -10.5q-20 0 -31 10.5t-11 28.5q0 41 42 41zM386 685q43 0 43 -41
q0 -39 -43 -39q-21 0 -32 10.5t-11 28.5q0 41 43 41z" />
    <glyph glyph-name="Amacron" unicode="&#x100;" horiz-adv-x="692" 
d="M400 703l282 -703h-88l-71 180h-357l-71 -180h-85l282 703h108zM344 630l-151 -382h303l-151 382h-1zM493 837v-48h-298v48h298z" />
    <glyph glyph-name="amacron" unicode="&#x101;" horiz-adv-x="584" 
d="M287 527q107 0 158 -37t51 -131v-266q0 -32 33 -32q6 0 28 2l5 -56q-47 -10 -67 -10q-39 0 -58.5 19t-19.5 49v15q-57 -87 -190 -87q-89 0 -139.5 39t-50.5 118q0 87 61.5 123t173.5 36q68 0 145 -9v59q0 61 -35.5 84t-104.5 23q-93 0 -185 -26l-12 59q94 28 207 28z
M242 54q75 0 125 37.5t50 97.5v55q-75 9 -141 9q-157 0 -157 -102q0 -52 35 -74.5t88 -22.5zM440 674v-48h-298v48h298z" />
    <glyph glyph-name="Abreve" unicode="&#x102;" horiz-adv-x="692" 
d="M400 703l282 -703h-88l-71 180h-357l-71 -180h-85l282 703h108zM344 630l-151 -382h303l-151 382h-1zM419 864l56 -3q-15 -103 -131 -103q-117 0 -132 103l56 3q15 -63 76 -63q60 0 75 63z" />
    <glyph glyph-name="abreve" unicode="&#x103;" horiz-adv-x="584" 
d="M287 527q107 0 158 -37t51 -131v-266q0 -32 33 -32q6 0 28 2l5 -56q-47 -10 -67 -10q-39 0 -58.5 19t-19.5 49v15q-57 -87 -190 -87q-89 0 -139.5 39t-50.5 118q0 87 61.5 123t173.5 36q68 0 145 -9v59q0 61 -35.5 84t-104.5 23q-93 0 -185 -26l-12 59q94 28 207 28z
M242 54q75 0 125 37.5t50 97.5v55q-75 9 -141 9q-157 0 -157 -102q0 -52 35 -74.5t88 -22.5zM367 710l55 -6q-17 -109 -131 -109q-115 0 -132 109l55 6q9 -37 25.5 -54.5t51.5 -17.5q34 0 50 17.5t26 54.5z" />
    <glyph glyph-name="Aogonek" unicode="&#x104;" horiz-adv-x="692" 
d="M400 703l282 -703h-1q-55 -35 -55 -86q0 -20 10.5 -31.5t26.5 -11.5q15 0 36 6l4 -42q-24 -11 -52 -11q-34 0 -56 19.5t-22 56.5q0 57 59 100h-38l-71 180h-357l-71 -180h-85l282 703h108zM344 630l-151 -382h303l-151 382h-1z" />
    <glyph glyph-name="aogonek" unicode="&#x105;" horiz-adv-x="584" 
d="M287 527q107 0 158 -37t51 -131v-266q0 -32 33 -32q6 0 28 2l5 -56q-38 -8 -45 -8q-52 -35 -52 -85q0 -20 10.5 -31.5t26.5 -11.5q15 0 36 6l4 -42q-24 -11 -52 -11q-34 0 -56 19.5t-22 56.5q0 56 58 100q-53 10 -53 65v15q-57 -87 -190 -87q-89 0 -139.5 39t-50.5 118
q0 87 61.5 123t173.5 36q68 0 145 -9v59q0 61 -35.5 84t-104.5 23q-93 0 -185 -26l-12 59q94 28 207 28zM242 54q75 0 125 37.5t50 97.5v55q-75 9 -141 9q-157 0 -157 -102q0 -52 35 -74.5t88 -22.5z" />
    <glyph glyph-name="Cacute" unicode="&#x106;" horiz-adv-x="680" 
d="M426 709q117 0 204 -39l-22 -63q-76 34 -165 34q-141 0 -221.5 -80.5t-80.5 -210.5q0 -131 80.5 -211t218.5 -80q93 0 175 34l17 -64q-93 -38 -208 -38q-165 0 -268.5 97t-103.5 261q0 166 105 263t269 97zM513 859l-82 -113h-58l67 113h73z" />
    <glyph glyph-name="cacute" unicode="&#x107;" horiz-adv-x="521" 
d="M326 528q90 0 155 -31l-18 -56q-66 24 -126 24q-100 0 -154.5 -55.5t-54.5 -149.5t55 -149.5t158 -55.5q55 0 126 28l14 -59q-76 -32 -153 -32q-126 0 -204 71.5t-78 196.5t77.5 196.5t202.5 71.5zM398 731l-82 -148h-58l67 148h73z" />
    <glyph glyph-name="Ccircumflex" unicode="&#x108;" horiz-adv-x="680" 
d="M426 709q117 0 204 -39l-22 -63q-76 34 -165 34q-141 0 -221.5 -80.5t-80.5 -210.5q0 -131 80.5 -211t218.5 -80q93 0 175 34l17 -64q-93 -38 -208 -38q-165 0 -268.5 97t-103.5 261q0 166 105 263t269 97zM437 859l109 -113h-70l-75 82l-76 -82h-70l109 113h73z" />
    <glyph glyph-name="ccircumflex" unicode="&#x109;" horiz-adv-x="521" 
d="M326 528q90 0 155 -31l-18 -56q-66 24 -126 24q-100 0 -154.5 -55.5t-54.5 -149.5t55 -149.5t158 -55.5q55 0 126 28l14 -59q-76 -32 -153 -32q-126 0 -204 71.5t-78 196.5t77.5 196.5t202.5 71.5zM340 732l109 -149h-68l-77 115l-78 -115h-68l109 149h73z" />
    <glyph glyph-name="Cdotaccent" unicode="&#x10a;" horiz-adv-x="680" 
d="M426 709q117 0 204 -39l-22 -63q-76 34 -165 34q-141 0 -221.5 -80.5t-80.5 -210.5q0 -131 80.5 -211t218.5 -80q93 0 175 34l17 -64q-93 -38 -208 -38q-165 0 -268.5 97t-103.5 261q0 166 105 263t269 97zM424 847q43 0 43 -39q0 -40 -43 -40q-19 0 -30 10.5t-11 29.5
q0 18 11 28.5t30 10.5z" />
    <glyph glyph-name="cdotaccent" unicode="&#x10b;" horiz-adv-x="521" 
d="M326 528q90 0 155 -31l-18 -56q-66 24 -126 24q-100 0 -154.5 -55.5t-54.5 -149.5t55 -149.5t158 -55.5q55 0 126 28l14 -59q-76 -32 -153 -32q-126 0 -204 71.5t-78 196.5t77.5 196.5t202.5 71.5zM308 687q21 0 33.5 -11t12.5 -30t-12.5 -30t-33.5 -11q-20 0 -32 11
t-12 30t12 30t32 11z" />
    <glyph glyph-name="Ccaron" unicode="&#x10c;" horiz-adv-x="680" 
d="M426 709q117 0 204 -39l-22 -63q-76 34 -165 34q-141 0 -221.5 -80.5t-80.5 -210.5q0 -131 80.5 -211t218.5 -80q93 0 175 34l17 -64q-93 -38 -208 -38q-165 0 -268.5 97t-103.5 261q0 166 105 263t269 97zM542 859l-109 -113h-73l-109 113h70l76 -82l75 82h70z" />
    <glyph glyph-name="ccaron" unicode="&#x10d;" horiz-adv-x="521" 
d="M326 528q90 0 155 -31l-18 -56q-66 24 -126 24q-100 0 -154.5 -55.5t-54.5 -149.5t55 -149.5t158 -55.5q55 0 126 28l14 -59q-76 -32 -153 -32q-126 0 -204 71.5t-78 196.5t77.5 196.5t202.5 71.5zM451 732l-109 -149h-73l-109 149h68l78 -114l77 114h68z" />
    <glyph glyph-name="Dcaron" unicode="&#x10e;" horiz-adv-x="753" 
d="M98 700h285q84 0 160 -44q78 -46 117 -126t39 -178q0 -100 -39 -182t-117 -126q-75 -44 -160 -44h-285v700zM363 632h-180v-564h179q45 0 91.5 17.5t77.5 46.5q79 74 79 220q0 165 -107 238q-64 42 -140 42zM509 859l-109 -113h-73l-109 113h70l76 -82l75 82h70z" />
    <glyph glyph-name="dcaron" unicode="&#x10f;" horiz-adv-x="630" 
d="M605 732h57q0 -57 -16 -143h-41v143zM479 732h79v-732h-68l-8 90q-58 -98 -199 -98q-115 0 -177 75t-62 192t63 193t176 76q137 0 196 -97v301zM303 465q-84 0 -130.5 -54.5t-46.5 -151.5q0 -95 47 -149.5t131 -54.5q73 0 124.5 53.5t51.5 150.5q0 98 -52 152t-125 54z
" />
    <glyph glyph-name="Dcroat" unicode="&#x110;" horiz-adv-x="753" 
d="M98 700h285q84 0 160 -44q78 -46 117 -126t39 -178q0 -100 -39 -182t-117 -126q-75 -44 -160 -44h-285v317h-90v53h90v330zM363 632h-180v-262h156v-53h-156v-249h179q45 0 91.5 17.5t77.5 46.5q79 74 79 220q0 165 -107 238q-64 42 -140 42z" />
    <glyph glyph-name="dcroat" unicode="&#x111;" horiz-adv-x="632" 
d="M479 732h79v-96h75v-29h-75v-607h-68l-8 90q-58 -98 -199 -98q-115 0 -177 75t-62 192t63 193t176 76q137 0 196 -97v176h-158v29h158v96zM303 465q-84 0 -130.5 -54.5t-46.5 -151.5q0 -95 47 -149.5t131 -54.5q73 0 124.5 53.5t51.5 150.5q0 98 -52 152t-125 54z" />
    <glyph glyph-name="Emacron" unicode="&#x112;" horiz-adv-x="652" 
d="M588 700v-68h-405v-256h349v-68h-349v-240h419v-68h-504v700h490zM494 837v-48h-298v48h298z" />
    <glyph glyph-name="emacron" unicode="&#x113;" horiz-adv-x="591" 
d="M544 232h-414q1 -86 55.5 -131t145.5 -45q93 0 176 40l15 -59q-98 -44 -198 -44q-133 0 -205.5 70.5t-72.5 192.5t70.5 196.5t190.5 74.5q115 0 177.5 -69t62.5 -183q0 -34 -3 -43zM309 464q-76 0 -123.5 -44.5t-54.5 -133.5h338q0 81 -39 129.5t-121 48.5zM445 664v-48
h-298v48h298z" />
    <glyph glyph-name="Ebreve" unicode="&#x114;" horiz-adv-x="652" 
d="M588 700v-68h-405v-256h349v-68h-349v-240h419v-68h-504v700h490zM420 864l56 -3q-15 -103 -131 -103q-117 0 -132 103l56 3q15 -63 76 -63q60 0 75 63z" />
    <glyph glyph-name="ebreve" unicode="&#x115;" horiz-adv-x="591" 
d="M544 232h-414q1 -86 55.5 -131t145.5 -45q93 0 176 40l15 -59q-98 -44 -198 -44q-133 0 -205.5 70.5t-72.5 192.5t70.5 196.5t190.5 74.5q115 0 177.5 -69t62.5 -183q0 -34 -3 -43zM309 464q-76 0 -123.5 -44.5t-54.5 -133.5h338q0 81 -39 129.5t-121 48.5zM372 700
l55 -6q-17 -109 -131 -109q-115 0 -132 109l55 6q9 -37 25.5 -54.5t51.5 -17.5q34 0 50 17.5t26 54.5z" />
    <glyph glyph-name="Edotaccent" unicode="&#x116;" horiz-adv-x="652" 
d="M588 700v-68h-405v-256h349v-68h-349v-240h419v-68h-504v700h490zM343 847q43 0 43 -39q0 -40 -43 -40q-19 0 -30 10.5t-11 29.5q0 18 11 28.5t30 10.5z" />
    <glyph glyph-name="edotaccent" unicode="&#x117;" horiz-adv-x="591" 
d="M544 232h-414q1 -86 55.5 -131t145.5 -45q93 0 176 40l15 -59q-98 -44 -198 -44q-133 0 -205.5 70.5t-72.5 192.5t70.5 196.5t190.5 74.5q115 0 177.5 -69t62.5 -183q0 -34 -3 -43zM309 464q-76 0 -123.5 -44.5t-54.5 -133.5h338q0 81 -39 129.5t-121 48.5zM295 677
q21 0 33.5 -11t12.5 -30t-12.5 -30t-33.5 -11q-20 0 -32 11t-12 30t12 30t32 11z" />
    <glyph glyph-name="Eogonek" unicode="&#x118;" horiz-adv-x="652" 
d="M588 700v-68h-405v-256h349v-68h-349v-240h419v-68h-8q-55 -35 -55 -86q0 -20 10.5 -31.5t26.5 -11.5q15 0 36 6l4 -42q-24 -11 -52 -11q-34 0 -56 19.5t-22 56.5q0 57 59 100h-447v700h490z" />
    <glyph glyph-name="eogonek" unicode="&#x119;" horiz-adv-x="591" 
d="M544 232h-414q1 -86 55.5 -131t145.5 -45q93 0 176 40l15 -59q-35 -16 -70 -26q-56 -36 -56 -97q0 -20 11 -31.5t27 -11.5t35 6l5 -42q-24 -11 -52 -11q-35 0 -56.5 19.5t-21.5 56.5q0 56 44 98q-33 -5 -64 -5q-133 0 -205.5 70.5t-72.5 192.5t70.5 196.5t190.5 74.5
q115 0 177.5 -69t62.5 -183q0 -34 -3 -43zM309 464q-76 0 -123.5 -44.5t-54.5 -133.5h338q0 81 -39 129.5t-121 48.5z" />
    <glyph glyph-name="Ecaron" unicode="&#x11a;" horiz-adv-x="652" 
d="M588 700v-68h-405v-256h349v-68h-349v-240h419v-68h-504v700h490zM490 859l-109 -113h-73l-109 113h70l76 -82l75 82h70z" />
    <glyph glyph-name="ecaron" unicode="&#x11b;" horiz-adv-x="591" 
d="M544 232h-414q1 -86 55.5 -131t145.5 -45q93 0 176 40l15 -59q-98 -44 -198 -44q-133 0 -205.5 70.5t-72.5 192.5t70.5 196.5t190.5 74.5q115 0 177.5 -69t62.5 -183q0 -34 -3 -43zM309 464q-76 0 -123.5 -44.5t-54.5 -133.5h338q0 81 -39 129.5t-121 48.5zM441 722
l-109 -149h-73l-109 149h68l78 -114l77 114h68z" />
    <glyph glyph-name="Gcircumflex" unicode="&#x11c;" horiz-adv-x="749" 
d="M424 709q128 0 225 -51l-23 -63q-98 46 -190 46q-137 0 -216 -80t-79 -209q0 -130 77 -211.5t206 -81.5q118 0 195 70v156h-187v64h257v-254q-104 -104 -270 -104q-161 0 -264 97t-103 263q0 164 103.5 261t268.5 97zM446 859l109 -113h-70l-75 82l-76 -82h-70l109 113
h73z" />
    <glyph glyph-name="gcircumflex" unicode="&#x11d;" horiz-adv-x="576" 
d="M291 527q50 0 82 -7h168v-54l-88 -1q59 -39 59 -116q0 -75 -56.5 -117.5t-164.5 -42.5q-75 0 -122 18q-36 -20 -35 -54q0 -34 39.5 -45t113.5 -11h66q87 0 134 -28.5t47 -95.5q0 -149 -245 -149q-241 0 -241 133q0 67 60 108q-42 27 -42 77q0 59 53 93q-50 42 -50 122
q0 85 58 127.5t164 42.5zM291 467q-141 0 -141 -110q0 -108 140 -108q141 0 141 108q0 110 -140 110zM283 35q-76 0 -112 7q-47 -30 -47 -74q0 -33 24 -52t57.5 -24.5t84.5 -5.5q168 0 168 82q0 39 -26.5 53t-88.5 14h-60zM328 732l109 -149h-68l-77 115l-78 -115h-68
l109 149h73z" />
    <glyph glyph-name="Gbreve" unicode="&#x11e;" horiz-adv-x="749" 
d="M424 709q128 0 225 -51l-23 -63q-98 46 -190 46q-137 0 -216 -80t-79 -209q0 -130 77 -211.5t206 -81.5q118 0 195 70v156h-187v64h257v-254q-104 -104 -270 -104q-161 0 -264 97t-103 263q0 164 103.5 261t268.5 97zM481 864l56 -3q-15 -103 -131 -103q-117 0 -132 103
l56 3q15 -63 76 -63q60 0 75 63z" />
    <glyph glyph-name="gbreve" unicode="&#x11f;" horiz-adv-x="576" 
d="M364 710l55 -6q-17 -109 -131 -109q-115 0 -132 109l55 6q9 -37 25.5 -54.5t51.5 -17.5q34 0 50 17.5t26 54.5zM291 527q50 0 82 -7h168v-54l-88 -1q59 -39 59 -116q0 -75 -56.5 -117.5t-164.5 -42.5q-75 0 -122 18q-36 -20 -35 -54q0 -34 39.5 -45t113.5 -11h66
q87 0 134 -28.5t47 -95.5q0 -149 -245 -149q-241 0 -241 133q0 67 60 108q-42 27 -42 77q0 59 53 93q-50 42 -50 122q0 85 58 127.5t164 42.5zM291 467q-141 0 -141 -110q0 -108 140 -108q141 0 141 108q0 110 -140 110zM283 35q-76 0 -112 7q-47 -30 -47 -74q0 -33 24 -52
t57.5 -24.5t84.5 -5.5q168 0 168 82q0 39 -26.5 53t-88.5 14h-60z" />
    <glyph glyph-name="Gdotaccent" unicode="&#x120;" horiz-adv-x="749" 
d="M424 709q128 0 225 -51l-23 -63q-98 46 -190 46q-137 0 -216 -80t-79 -209q0 -130 77 -211.5t206 -81.5q118 0 195 70v156h-187v64h257v-254q-104 -104 -270 -104q-161 0 -264 97t-103 263q0 164 103.5 261t268.5 97zM411 847q43 0 43 -39q0 -40 -43 -40q-19 0 -30 10.5
t-11 29.5q0 18 11 28.5t30 10.5z" />
    <glyph glyph-name="gdotaccent" unicode="&#x121;" horiz-adv-x="576" 
d="M291 527q50 0 82 -7h168v-54l-88 -1q59 -39 59 -116q0 -75 -56.5 -117.5t-164.5 -42.5q-75 0 -122 18q-36 -20 -35 -54q0 -34 39.5 -45t113.5 -11h66q87 0 134 -28.5t47 -95.5q0 -149 -245 -149q-241 0 -241 133q0 67 60 108q-42 27 -42 77q0 59 53 93q-50 42 -50 122
q0 85 58 127.5t164 42.5zM291 467q-141 0 -141 -110q0 -108 140 -108q141 0 141 108q0 110 -140 110zM283 35q-76 0 -112 7q-47 -30 -47 -74q0 -33 24 -52t57.5 -24.5t84.5 -5.5q168 0 168 82q0 39 -26.5 53t-88.5 14h-60zM283 687q21 0 33.5 -11t12.5 -30t-12.5 -30
t-33.5 -11q-20 0 -32 11t-12 30t12 30t32 11z" />
    <glyph glyph-name="Gcommaaccent" unicode="&#x122;" horiz-adv-x="749" 
d="M424 709q128 0 225 -51l-23 -63q-98 46 -190 46q-137 0 -216 -80t-79 -209q0 -130 77 -211.5t206 -81.5q118 0 195 70v156h-187v64h257v-254q-104 -104 -270 -104q-161 0 -264 97t-103 263q0 164 103.5 261t268.5 97zM387 -48h59q0 -21 -2.5 -38.5t-4.5 -26t-7.5 -29.5
t-8.5 -31h-50q15 82 14 125z" />
    <glyph glyph-name="gcommaaccent" unicode="&#x123;" horiz-adv-x="576" 
d="M319 585h-59q0 21 2.5 38.5t4.5 26t7.5 29.5t8.5 31h50q-15 -82 -14 -125zM291 527q50 0 82 -7h168v-54l-88 -1q59 -39 59 -116q0 -75 -56.5 -117.5t-164.5 -42.5q-75 0 -122 18q-36 -20 -35 -54q0 -34 39.5 -45t113.5 -11h66q87 0 134 -28.5t47 -95.5q0 -149 -245 -149
q-241 0 -241 133q0 67 60 108q-42 27 -42 77q0 59 53 93q-50 42 -50 122q0 85 58 127.5t164 42.5zM291 467q-141 0 -141 -110q0 -108 140 -108q141 0 141 108q0 110 -140 110zM283 35q-76 0 -112 7q-47 -30 -47 -74q0 -33 24 -52t57.5 -24.5t84.5 -5.5q168 0 168 82
q0 39 -26.5 53t-88.5 14h-60z" />
    <glyph glyph-name="Hcircumflex" unicode="&#x124;" horiz-adv-x="765" 
d="M667 700v-700h-85v314h-399v-314h-85v700h85v-318h399v318h85zM419 859l109 -113h-70l-75 82l-76 -82h-70l109 113h73z" />
    <glyph glyph-name="hcircumflex" unicode="&#x125;" horiz-adv-x="613" 
d="M158 732v-307q59 102 188 102q192 0 192 -201v-326h-79v320q0 71 -35.5 108.5t-99.5 37.5q-82 0 -124 -54.5t-42 -129.5v-282h-79v732h79zM152 878l109 -113h-70l-75 82l-76 -82h-70l109 113h73z" />
    <glyph glyph-name="Hbar" unicode="&#x126;" horiz-adv-x="765" 
d="M667 700v-125h56v-39h-56v-536h-85v314h-399v-314h-85v536h-57v39h57v125h85v-125h399v125h85zM183 382h399v154h-399v-154z" />
    <glyph glyph-name="hbar" unicode="&#x127;" horiz-adv-x="605" 
d="M156 732v-96h156v-29h-156v-182q59 102 188 102q192 0 192 -201v-326h-79v320q0 71 -35.5 108.5t-99.5 37.5q-82 0 -124 -54.5t-42 -129.5v-282h-79v607h-78v29h78v96h79z" />
    <glyph glyph-name="Itilde" unicode="&#x128;" horiz-adv-x="279" 
d="M182 700v-700h-85v700h85zM259 856l30 -13q-25 -75 -88 -75q-25 0 -67 20q-46 22 -63 22q-30 0 -49 -34l-29 12q24 76 87 76q25 0 67 -21q40 -21 63 -21q30 0 49 34z" />
    <glyph glyph-name="itilde" unicode="&#x129;" horiz-adv-x="254" 
d="M174 520v-520h-79v463h-63v57h142zM242 693l30 -13q-26 -75 -88 -75q-25 0 -67 20q-46 22 -63 22q-30 0 -49 -34l-29 12q24 76 87 76q25 0 67 -21q40 -21 63 -21q30 0 49 34z" />
    <glyph glyph-name="Imacron" unicode="&#x12a;" horiz-adv-x="279" 
d="M182 700v-700h-85v700h85zM289 837v-48h-298v48h298z" />
    <glyph glyph-name="imacron" unicode="&#x12b;" horiz-adv-x="254" 
d="M174 520v-520h-79v463h-63v57h142zM272 674v-48h-298v48h298z" />
    <glyph glyph-name="Ibreve" unicode="&#x12c;" horiz-adv-x="279" 
d="M182 700v-700h-85v700h85zM215 864l56 -3q-15 -103 -131 -103q-117 0 -132 103l56 3q15 -63 76 -63q60 0 75 63z" />
    <glyph glyph-name="ibreve" unicode="&#x12d;" horiz-adv-x="254" 
d="M174 520v-520h-79v463h-63v57h142zM199 710l55 -6q-17 -109 -131 -109q-115 0 -132 109l55 6q9 -37 25.5 -54.5t51.5 -17.5q34 0 50 17.5t26 54.5z" />
    <glyph glyph-name="Iogonek" unicode="&#x12e;" horiz-adv-x="279" 
d="M182 700v-700h-12q-55 -35 -55 -86q0 -20 10.5 -31.5t26.5 -11.5q15 0 36 6l4 -42q-24 -11 -52 -11q-34 0 -56 19.5t-22 56.5q0 57 59 100h-24v700h85z" />
    <glyph glyph-name="iogonek" unicode="&#x12f;" horiz-adv-x="255" 
d="M174 520v-520h-9q-55 -35 -55 -86q0 -20 10.5 -31.5t26.5 -11.5q15 0 36 6l4 -42q-24 -11 -52 -11q-34 0 -56 19.5t-22 56.5q0 57 59 100h-21v463h-63v57h142zM126 699q47 0 47 -44q0 -43 -47 -43t-47 43q0 44 47 44z" />
    <glyph glyph-name="Idotaccent" unicode="&#x130;" horiz-adv-x="279" 
d="M182 700v-700h-85v700h85zM138 847q43 0 43 -39q0 -40 -43 -40q-19 0 -30 10.5t-11 29.5q0 18 11 28.5t30 10.5z" />
    <glyph glyph-name="dotlessi" unicode="&#x131;" horiz-adv-x="254" 
d="M174 520v-520h-79v463h-63v57h142z" />
    <glyph glyph-name="Jcircumflex" unicode="&#x134;" horiz-adv-x="534" 
d="M446 700v-476q0 -112 -62 -172.5t-164 -60.5q-81 0 -135.5 40.5t-71.5 81.5l50 45q21 -42 60.5 -70t92.5 -28q65 0 105 41.5t40 121.5v477h85zM437 859l109 -113h-70l-75 82l-76 -82h-70l109 113h73z" />
    <glyph glyph-name="jcircumflex" unicode="&#x135;" horiz-adv-x="255" 
d="M174 520v-580q0 -63 -27 -89t-89 -26h-41v63h24q33 0 43.5 13.5t10.5 48.5v513h-67v57h146zM159 732l109 -149h-68l-77 115l-78 -115h-68l109 149h73z" />
    <glyph glyph-name="Kcommaaccent" unicode="&#x136;" horiz-adv-x="684" 
d="M645 700l-249 -266l268 -434h-101l-227 369l-153 -164v-205h-85v700h85v-388l362 388h100zM330 -45h59q0 -21 -2.5 -38.5t-4.5 -26t-7.5 -29.5t-8.5 -31h-50q15 82 14 125z" />
    <glyph glyph-name="kcommaaccent" unicode="&#x137;" horiz-adv-x="526" 
d="M158 732v-482l267 270h88l-196 -200l200 -320h-89l-164 266l-106 -107v-159h-79v732h79zM251 -45h59q0 -21 -2.5 -38.5t-4.5 -26t-7.5 -29.5t-8.5 -31h-50q15 82 14 125z" />
    <glyph glyph-name="kgreenlandic" unicode="&#x138;" horiz-adv-x="529" 
d="M516 520l-194 -197l198 -323h-89l-162 269l-109 -110v-159h-79v520h79v-270l268 270h88z" />
    <glyph glyph-name="Lacute" unicode="&#x139;" horiz-adv-x="570" 
d="M183 700v-632h369v-68h-454v700h85zM256 859l-82 -113h-58l67 113h73z" />
    <glyph glyph-name="lacute" unicode="&#x13a;" horiz-adv-x="274" 
d="M157 732v-635q0 -25 10.5 -34t29.5 -9q11 0 26.5 1t16.5 1l2 -57q-22 -6 -71 -6q-48 0 -70.5 21.5t-22.5 69.5v648h79zM232 868l-82 -113h-58l67 113h73z" />
    <glyph glyph-name="Lcommaaccent" unicode="&#x13b;" horiz-adv-x="570" 
d="M183 700v-632h369v-68h-454v700h85zM297 -45h59q0 -21 -2.5 -38.5t-4.5 -26t-7.5 -29.5t-8.5 -31h-50q15 82 14 125z" />
    <glyph glyph-name="lcommaaccent" unicode="&#x13c;" horiz-adv-x="274" 
d="M157 732v-635q0 -25 10.5 -34t29.5 -9q11 0 26.5 1t16.5 1l2 -57q-22 -6 -71 -6q-48 0 -70.5 21.5t-22.5 69.5v648h79zM128 -45h59q0 -21 -2.5 -38.5t-4.5 -26t-7.5 -29.5t-8.5 -31h-50q15 82 14 125z" />
    <glyph glyph-name="Lcaron" unicode="&#x13d;" horiz-adv-x="570" 
d="M352 700h57q0 -57 -16 -143h-41v143zM183 700v-632h369v-68h-454v700h85z" />
    <glyph glyph-name="lcaron" unicode="&#x13e;" horiz-adv-x="285" 
d="M214 732h57q0 -57 -16 -143h-41v143zM157 732v-635q0 -25 10.5 -34t29.5 -9q11 0 26.5 1t16.5 1l2 -57q-22 -6 -71 -6q-48 0 -70.5 21.5t-22.5 69.5v648h79z" />
    <glyph glyph-name="Lslash" unicode="&#x141;" horiz-adv-x="582" 
d="M183 700v-341l170 103v-44l-170 -103v-247h369v-68h-454v264l-77 -46v43l77 46v393h85z" />
    <glyph glyph-name="lslash" unicode="&#x142;" horiz-adv-x="298" 
d="M173 732v-369l113 67v-41l-113 -67v-225q0 -25 10.5 -34t29.5 -9q11 0 26.5 1t16.5 1l2 -57q-22 -6 -71 -6q-48 0 -70.5 21.5t-22.5 69.5v191l-69 -41v41l69 41v416h79z" />
    <glyph glyph-name="Nacute" unicode="&#x143;" horiz-adv-x="751" 
d="M654 700v-700h-89l-382 570v-570h-85v700h89l382 -564v564h85zM498 859l-82 -113h-58l67 113h73z" />
    <glyph glyph-name="nacute" unicode="&#x144;" horiz-adv-x="612" 
d="M412 731l-82 -148h-58l67 148h73zM345 527q192 0 192 -201v-326h-79v320q0 71 -35.5 108.5t-99.5 37.5q-82 0 -124 -54.5t-42 -129.5v-282h-79v520h69l6 -95q59 102 192 102z" />
    <glyph glyph-name="Ncommaaccent" unicode="&#x145;" horiz-adv-x="751" 
d="M654 700v-700h-89l-382 570v-570h-85v700h89l382 -564v564h85zM349 -45h59q0 -21 -2.5 -38.5t-4.5 -26t-7.5 -29.5t-8.5 -31h-50q15 82 14 125z" />
    <glyph glyph-name="ncommaaccent" unicode="&#x146;" horiz-adv-x="612" 
d="M345 527q192 0 192 -201v-326h-79v320q0 71 -35.5 108.5t-99.5 37.5q-82 0 -124 -54.5t-42 -129.5v-282h-79v520h69l6 -95q59 102 192 102zM278 -45h59q0 -21 -2.5 -38.5t-4.5 -26t-7.5 -29.5t-8.5 -31h-50q15 82 14 125z" />
    <glyph glyph-name="Ncaron" unicode="&#x147;" horiz-adv-x="751" 
d="M654 700v-700h-89l-382 570v-570h-85v700h89l382 -564v564h85zM527 859l-109 -113h-73l-109 113h70l76 -82l75 82h70z" />
    <glyph glyph-name="ncaron" unicode="&#x148;" horiz-adv-x="612" 
d="M345 527q192 0 192 -201v-326h-79v320q0 71 -35.5 108.5t-99.5 37.5q-82 0 -124 -54.5t-42 -129.5v-282h-79v520h69l6 -95q59 102 192 102zM449 732l-109 -149h-73l-109 149h68l78 -114l77 114h68z" />
    <glyph glyph-name="Eng" unicode="&#x14a;" horiz-adv-x="751" 
d="M654 700v-696q0 -73 -44 -110.5t-119 -55.5l-17 58q20 7 30 11t28 15t26.5 28t8.5 40v10l-384 570v-570h-85v700h89l382 -562v562h85z" />
    <glyph glyph-name="eng" unicode="&#x14b;" horiz-adv-x="610" 
d="M345 527q192 0 192 -201v-335q0 -117 -151 -160l-15 52q17 7 27.5 12.5t26.5 17.5t24.5 30t8.5 42v335q0 71 -35.5 108.5t-99.5 37.5q-82 0 -124 -54.5t-42 -129.5v-282h-79v520h69l6 -98q60 105 192 105z" />
    <glyph glyph-name="Omacron" unicode="&#x14c;" horiz-adv-x="800" 
d="M400 709q160 0 256.5 -98.5t96.5 -261.5t-96 -260.5t-257 -97.5q-160 0 -256.5 97.5t-96.5 260.5t96.5 261.5t256.5 98.5zM400 641q-119 0 -191.5 -78.5t-72.5 -214.5q0 -135 72.5 -212t191.5 -77q121 0 192.5 77t71.5 212q0 136 -72 214.5t-192 78.5zM549 837v-48h-298
v48h298z" />
    <glyph glyph-name="omacron" unicode="&#x14d;" horiz-adv-x="628" 
d="M314 528q120 0 194 -72.5t74 -195.5t-74 -195.5t-194 -72.5t-194 72.5t-74 195.5t74 195.5t194 72.5zM314 465q-85 0 -135.5 -54t-50.5 -151t50.5 -151t135.5 -54q84 0 135 54t51 151t-51 151t-135 54zM463 674v-48h-298v48h298z" />
    <glyph glyph-name="Obreve" unicode="&#x14e;" horiz-adv-x="800" 
d="M400 709q160 0 256.5 -98.5t96.5 -261.5t-96 -260.5t-257 -97.5q-160 0 -256.5 97.5t-96.5 260.5t96.5 261.5t256.5 98.5zM400 641q-119 0 -191.5 -78.5t-72.5 -214.5q0 -135 72.5 -212t191.5 -77q121 0 192.5 77t71.5 212q0 136 -72 214.5t-192 78.5zM475 864l56 -3
q-15 -103 -131 -103q-117 0 -132 103l56 3q15 -63 76 -63q60 0 75 63z" />
    <glyph glyph-name="obreve" unicode="&#x14f;" horiz-adv-x="628" 
d="M314 528q120 0 194 -72.5t74 -195.5t-74 -195.5t-194 -72.5t-194 72.5t-74 195.5t74 195.5t194 72.5zM314 465q-85 0 -135.5 -54t-50.5 -151t50.5 -151t135.5 -54q84 0 135 54t51 151t-51 151t-135 54zM390 710l55 -6q-17 -109 -131 -109q-115 0 -132 109l55 6
q9 -37 25.5 -54.5t51.5 -17.5q34 0 50 17.5t26 54.5z" />
    <glyph glyph-name="Ohungarumlaut" unicode="&#x150;" horiz-adv-x="800" 
d="M400 709q160 0 256.5 -98.5t96.5 -261.5t-96 -260.5t-257 -97.5q-160 0 -256.5 97.5t-96.5 260.5t96.5 261.5t256.5 98.5zM400 641q-119 0 -191.5 -78.5t-72.5 -214.5q0 -135 72.5 -212t191.5 -77q121 0 192.5 77t71.5 212q0 136 -72 214.5t-192 78.5zM564 859l-74 -113
h-58l58 113h74zM421 859l-74 -113h-58l58 113h74z" />
    <glyph glyph-name="ohungarumlaut" unicode="&#x151;" horiz-adv-x="628" 
d="M314 528q120 0 194 -72.5t74 -195.5t-74 -195.5t-194 -72.5t-194 72.5t-74 195.5t74 195.5t194 72.5zM314 465q-85 0 -135.5 -54t-50.5 -151t50.5 -151t135.5 -54q84 0 135 54t51 151t-51 151t-135 54zM335 732l-74 -149h-58l58 149h74zM478 732l-74 -149h-58l58 149h74z
" />
    <glyph glyph-name="OE" unicode="&#x152;" horiz-adv-x="1226" 
d="M1162 700v-68h-405v-257h349v-68h-349v-239h419v-68h-504v117q-98 -126 -272 -126q-160 0 -256.5 97.5t-96.5 260.5t96.5 261.5t256.5 98.5q174 0 272 -127v118h490zM400 641q-119 0 -191.5 -78.5t-72.5 -214.5q0 -135 72.5 -212t191.5 -77q120 0 191 77t71 212
q0 136 -71 214.5t-191 78.5z" />
    <glyph glyph-name="oe" unicode="&#x153;" horiz-adv-x="1047" 
d="M1000 232h-414q1 -86 55.5 -131t145.5 -45q93 0 176 40l15 -59q-98 -44 -198 -44q-169 0 -240 112q-35 -54 -93.5 -83.5t-132.5 -29.5q-120 0 -194 72.5t-74 195.5t74 195.5t194 72.5q75 0 134 -30t94 -86q69 115 221 115q115 0 177.5 -69t62.5 -183q0 -34 -3 -43z
M314 465q-85 0 -135.5 -54t-50.5 -151t50.5 -151t135.5 -54q84 0 135 54t51 151t-51 151t-135 54zM765 464q-76 0 -123.5 -44.5t-54.5 -133.5h338q0 81 -39 129.5t-121 48.5z" />
    <glyph glyph-name="Racute" unicode="&#x154;" horiz-adv-x="693" 
d="M98 700h339q95 0 153 -58.5t58 -145.5q0 -72 -40.5 -124.5t-111.5 -72.5l143 -299h-90l-135 294h-231v-294h-85v700zM421 632h-238v-270h238q64 0 101 38t37 97q0 58 -37.5 96.5t-100.5 38.5zM429 859l-82 -113h-58l67 113h73z" />
    <glyph glyph-name="racute" unicode="&#x155;" horiz-adv-x="352" 
d="M323 520l-3 -74q-76 10 -119.5 -43t-43.5 -139v-264h-79v520h65l7 -108q19 51 64 84t109 24zM279 731l-82 -148h-58l67 148h73z" />
    <glyph glyph-name="Rcommaaccent" unicode="&#x156;" horiz-adv-x="693" 
d="M98 700h339q95 0 153 -58.5t58 -145.5q0 -72 -40.5 -124.5t-111.5 -72.5l143 -299h-90l-135 294h-231v-294h-85v700zM421 632h-238v-270h238q64 0 101 38t37 97q0 58 -37.5 96.5t-100.5 38.5zM330 -45h59q0 -21 -2.5 -38.5t-4.5 -26t-7.5 -29.5t-8.5 -31h-50
q15 82 14 125z" />
    <glyph glyph-name="rcommaaccent" unicode="&#x157;" horiz-adv-x="350" 
d="M323 520l-3 -74q-76 10 -119.5 -43t-43.5 -139v-264h-79v520h65l7 -108q19 51 64 84t109 24zM93 -45h59q0 -21 -2.5 -38.5t-4.5 -26t-7.5 -29.5t-8.5 -31h-50q15 82 14 125z" />
    <glyph glyph-name="Rcaron" unicode="&#x158;" horiz-adv-x="693" 
d="M98 700h339q95 0 153 -58.5t58 -145.5q0 -72 -40.5 -124.5t-111.5 -72.5l143 -299h-90l-135 294h-231v-294h-85v700zM421 632h-238v-270h238q64 0 101 38t37 97q0 58 -37.5 96.5t-100.5 38.5zM482 859l-109 -113h-73l-109 113h70l76 -82l75 82h70z" />
    <glyph glyph-name="rcaron" unicode="&#x159;" horiz-adv-x="350" 
d="M323 520l-3 -74q-76 10 -119.5 -43t-43.5 -139v-264h-79v520h65l7 -108q19 51 64 84t109 24zM327 732l-109 -149h-73l-109 149h68l78 -114l77 114h68z" />
    <glyph glyph-name="Sacute" unicode="&#x15a;" horiz-adv-x="613" 
d="M306 709q122 0 235 -52l-24 -65q-10 6 -33 15.5t-73.5 21.5t-99.5 12q-78 0 -122 -30.5t-44 -85.5q0 -14 4 -27t8 -22.5t15.5 -19t18 -15.5t23.5 -13.5l24.5 -11t29.5 -10t29 -8t31 -8.5q58 -15 93.5 -27.5t73.5 -35.5t56 -57.5t18 -81.5q0 -97 -70 -147t-190 -50
q-73 0 -144.5 18.5t-115.5 42.5l22 65q130 -57 236 -57q89 0 131.5 31.5t42.5 86.5q0 25 -11 45t-24 32t-42.5 24t-47.5 17.5t-58 16.5q-45 11 -71.5 19.5t-63.5 25.5t-57 36t-35 51t-15 72q0 94 68.5 143t181.5 49zM421 859l-82 -113h-58l67 113h73z" />
    <glyph glyph-name="sacute" unicode="&#x15b;" horiz-adv-x="481" 
d="M240 527q100 0 183 -34l-14 -53q-74 29 -157 29q-63 0 -94.5 -21.5t-31.5 -59.5q0 -12 3 -22t7 -17.5t14 -14l16.5 -10.5t22 -9t23.5 -7l28.5 -7.5t29.5 -7.5q34 -9 54 -15.5t46.5 -19.5t40.5 -27.5t24.5 -37.5t10.5 -53q0 -73 -55 -110t-145 -37q-103 0 -203 43l17 54
q92 -39 177 -39q64 0 96 22.5t32 60.5q0 12 -3.5 22t-7.5 17t-14 14t-16.5 10.5t-22.5 9t-24.5 7.5t-29 7.5t-29.5 7.5q-34 9 -51.5 14.5t-44.5 18.5t-40.5 27t-24.5 38t-11 54q0 72 52.5 109t141.5 37zM330 731l-82 -148h-58l67 148h73z" />
    <glyph glyph-name="Scircumflex" unicode="&#x15c;" horiz-adv-x="613" 
d="M306 709q122 0 235 -52l-24 -65q-10 6 -33 15.5t-73.5 21.5t-99.5 12q-78 0 -122 -30.5t-44 -85.5q0 -14 4 -27t8 -22.5t15.5 -19t18 -15.5t23.5 -13.5l24.5 -11t29.5 -10t29 -8t31 -8.5q58 -15 93.5 -27.5t73.5 -35.5t56 -57.5t18 -81.5q0 -97 -70 -147t-190 -50
q-73 0 -144.5 18.5t-115.5 42.5l22 65q130 -57 236 -57q89 0 131.5 31.5t42.5 86.5q0 25 -11 45t-24 32t-42.5 24t-47.5 17.5t-58 16.5q-45 11 -71.5 19.5t-63.5 25.5t-57 36t-35 51t-15 72q0 94 68.5 143t181.5 49zM351 859l109 -113h-70l-75 82l-76 -82h-70l109 113h73z
" />
    <glyph glyph-name="scircumflex" unicode="&#x15d;" horiz-adv-x="481" 
d="M240 527q100 0 183 -34l-14 -53q-74 29 -157 29q-63 0 -94.5 -21.5t-31.5 -59.5q0 -12 3 -22t7 -17.5t14 -14l16.5 -10.5t22 -9t23.5 -7l28.5 -7.5t29.5 -7.5q34 -9 54 -15.5t46.5 -19.5t40.5 -27.5t24.5 -37.5t10.5 -53q0 -73 -55 -110t-145 -37q-103 0 -203 43l17 54
q92 -39 177 -39q64 0 96 22.5t32 60.5q0 12 -3.5 22t-7.5 17t-14 14t-16.5 10.5t-22.5 9t-24.5 7.5t-29 7.5t-29.5 7.5q-34 9 -51.5 14.5t-44.5 18.5t-40.5 27t-24.5 38t-11 54q0 72 52.5 109t141.5 37zM288 732l109 -149h-68l-77 115l-78 -115h-68l109 149h73z" />
    <glyph glyph-name="Scedilla" unicode="&#x15e;" horiz-adv-x="613" 
d="M306 709q122 0 235 -52l-24 -65q-10 6 -33 15.5t-73.5 21.5t-99.5 12q-78 0 -122 -30.5t-44 -85.5q0 -14 4 -27t8 -22.5t15.5 -19t18 -15.5t23.5 -13.5l24.5 -11t29.5 -10t29 -8t31 -8.5q58 -15 93.5 -27.5t73.5 -35.5t56 -57.5t18 -81.5q0 -92 -63 -141.5t-172 -54.5
l-17 -55q19 1 35 -1.5t32 -18.5t16 -44q0 -71 -97 -71q-43 0 -77 15l7 35q28 -12 63 -12q50 0 50 32q0 40 -67 30l-14 21l23 69q-139 6 -239 60l22 65q130 -57 236 -57q89 0 131.5 31.5t42.5 86.5q0 25 -11 45t-24 32t-42.5 24t-47.5 17.5t-58 16.5q-45 11 -71.5 19.5
t-63.5 25.5t-57 36t-35 51t-15 72q0 94 68.5 143t181.5 49z" />
    <glyph glyph-name="scedilla" unicode="&#x15f;" horiz-adv-x="481" 
d="M240 527q100 0 183 -34l-14 -53q-74 29 -157 29q-63 0 -94.5 -21.5t-31.5 -59.5q0 -12 3 -22t7 -17.5t14 -14l16.5 -10.5t22 -9t23.5 -7l28.5 -7.5t29.5 -7.5q34 -9 54 -15.5t46.5 -19.5t40.5 -27.5t24.5 -37.5t10.5 -53q0 -68 -49 -105t-131 -41l-18 -57q19 1 35 -1.5
t32 -18.5t16 -44q0 -71 -97 -71q-43 0 -77 15l7 35q28 -12 63 -12q50 0 50 32q0 40 -67 30l-14 21l24 71q-91 5 -177 42l17 54q92 -39 177 -39q64 0 96 22.5t32 60.5q0 12 -3.5 22t-7.5 17t-14 14t-16.5 10.5t-22.5 9t-24.5 7.5t-29 7.5t-29.5 7.5q-34 9 -51.5 14.5
t-44.5 18.5t-40.5 27t-24.5 38t-11 54q0 72 52.5 109t141.5 37z" />
    <glyph glyph-name="Scaron" unicode="&#x160;" horiz-adv-x="613" 
d="M306 709q122 0 235 -52l-24 -65q-10 6 -33 15.5t-73.5 21.5t-99.5 12q-78 0 -122 -30.5t-44 -85.5q0 -14 4 -27t8 -22.5t15.5 -19t18 -15.5t23.5 -13.5l24.5 -11t29.5 -10t29 -8t31 -8.5q58 -15 93.5 -27.5t73.5 -35.5t56 -57.5t18 -81.5q0 -97 -70 -147t-190 -50
q-73 0 -144.5 18.5t-115.5 42.5l22 65q130 -57 236 -57q89 0 131.5 31.5t42.5 86.5q0 25 -11 45t-24 32t-42.5 24t-47.5 17.5t-58 16.5q-45 11 -71.5 19.5t-63.5 25.5t-57 36t-35 51t-15 72q0 94 68.5 143t181.5 49zM461 859l-109 -113h-73l-109 113h70l76 -82l75 82h70z
" />
    <glyph glyph-name="scaron" unicode="&#x161;" horiz-adv-x="481" 
d="M240 527q100 0 183 -34l-14 -53q-74 29 -157 29q-63 0 -94.5 -21.5t-31.5 -59.5q0 -12 3 -22t7 -17.5t14 -14l16.5 -10.5t22 -9t23.5 -7l28.5 -7.5t29.5 -7.5q34 -9 54 -15.5t46.5 -19.5t40.5 -27.5t24.5 -37.5t10.5 -53q0 -73 -55 -110t-145 -37q-103 0 -203 43l17 54
q92 -39 177 -39q64 0 96 22.5t32 60.5q0 12 -3.5 22t-7.5 17t-14 14t-16.5 10.5t-22.5 9t-24.5 7.5t-29 7.5t-29.5 7.5q-34 9 -51.5 14.5t-44.5 18.5t-40.5 27t-24.5 38t-11 54q0 72 52.5 109t141.5 37zM389 732l-109 -149h-73l-109 149h68l78 -114l77 114h68z" />
    <glyph glyph-name="Tcommaaccent" unicode="&#x162;" horiz-adv-x="597" 
d="M583 700v-68h-242v-632h-85v632h-241v68h568zM268 -45h59q0 -21 -2.5 -38.5t-4.5 -26t-7.5 -29.5t-8.5 -31h-50q15 82 14 125z" />
    <glyph glyph-name="tcommaaccent" unicode="&#x163;" horiz-adv-x="350" 
d="M176 670v-150h147v-57h-147v-315q0 -54 17.5 -75t60.5 -21q30 0 69 11l3 -55q-37 -15 -94 -15q-71 0 -103 35t-32 118v317h-76v57h76l12 150h67zM185 -45h59q0 -21 -2.5 -38.5t-4.5 -26t-7.5 -29.5t-8.5 -31h-50q15 82 14 125z" />
    <glyph glyph-name="Tcaron" unicode="&#x164;" horiz-adv-x="597" 
d="M583 700v-68h-242v-632h-85v632h-241v68h568zM444 859l-109 -113h-73l-109 113h70l76 -82l75 82h70z" />
    <glyph glyph-name="tcaron" unicode="&#x165;" horiz-adv-x="348" 
d="M240 728h57q0 -57 -16 -143h-41v143zM176 670v-150h147v-57h-147v-315q0 -54 17.5 -75t60.5 -21q30 0 69 11l3 -55q-37 -15 -94 -15q-71 0 -103 35t-32 118v317h-76v57h76l12 150h67z" />
    <glyph glyph-name="Tbar" unicode="&#x166;" horiz-adv-x="598" 
d="M583 700v-68h-242v-255h167v-39h-167v-338h-85v338h-167v39h167v255h-241v68h568z" />
    <glyph glyph-name="tbar" unicode="&#x167;" horiz-adv-x="341" 
d="M172 670v-150h147v-57h-147v-91h147v-29h-147v-195q0 -54 17.5 -75t60.5 -21q30 0 69 11l3 -55q-38 -15 -94 -15q-71 0 -103 35t-32 118v197h-76v29h76v91h-76v57h76l12 150h67z" />
    <glyph glyph-name="Utilde" unicode="&#x168;" horiz-adv-x="718" 
d="M635 700v-456q0 -118 -77 -185.5t-199 -67.5q-124 0 -200 68.5t-76 184.5v456h85v-460q0 -83 54.5 -132t136.5 -49q83 0 137 49t54 132v460h85zM483 856l30 -13q-25 -75 -88 -75q-25 0 -67 20q-46 22 -63 22q-30 0 -49 -34l-29 12q24 76 87 76q25 0 67 -21q40 -21 63 -21
q30 0 49 34z" />
    <glyph glyph-name="utilde" unicode="&#x169;" horiz-adv-x="606" 
d="M262 -7q-192 0 -192 201v326h79v-320q0 -70 35.5 -107t99.5 -37q82 0 124 54.5t42 127.5v282h79v-520h-69l-7 95q-57 -102 -191 -102zM420 693l30 -13q-26 -75 -88 -75q-25 0 -67 20q-46 22 -63 22q-30 0 -49 -34l-29 12q24 76 87 76q25 0 67 -21q40 -21 63 -21
q30 0 49 34z" />
    <glyph glyph-name="Umacron" unicode="&#x16a;" horiz-adv-x="718" 
d="M635 700v-456q0 -118 -77 -185.5t-199 -67.5q-124 0 -200 68.5t-76 184.5v456h85v-460q0 -83 54.5 -132t136.5 -49q83 0 137 49t54 132v460h85zM508 837v-48h-298v48h298z" />
    <glyph glyph-name="umacron" unicode="&#x16b;" horiz-adv-x="606" 
d="M262 -7q-192 0 -192 201v326h79v-320q0 -70 35.5 -107t99.5 -37q82 0 124 54.5t42 127.5v282h79v-520h-69l-7 95q-57 -102 -191 -102zM450 674v-48h-298v48h298z" />
    <glyph glyph-name="Ubreve" unicode="&#x16c;" horiz-adv-x="718" 
d="M635 700v-456q0 -118 -77 -185.5t-199 -67.5q-124 0 -200 68.5t-76 184.5v456h85v-460q0 -83 54.5 -132t136.5 -49q83 0 137 49t54 132v460h85zM434 864l56 -3q-15 -103 -131 -103q-117 0 -132 103l56 3q15 -63 76 -63q60 0 75 63z" />
    <glyph glyph-name="ubreve" unicode="&#x16d;" horiz-adv-x="606" 
d="M262 -7q-192 0 -192 201v326h79v-320q0 -70 35.5 -107t99.5 -37q82 0 124 54.5t42 127.5v282h79v-520h-69l-7 95q-57 -102 -191 -102zM377 710l55 -6q-17 -109 -131 -109q-115 0 -132 109l55 6q9 -37 25.5 -54.5t51.5 -17.5q34 0 50 17.5t26 54.5z" />
    <glyph glyph-name="Uring" unicode="&#x16e;" horiz-adv-x="718" 
d="M635 700v-456q0 -118 -77 -185.5t-199 -67.5q-124 0 -200 68.5t-76 184.5v456h85v-460q0 -83 54.5 -132t136.5 -49q83 0 137 49t54 132v460h85zM359 929q42 0 70 -24t28 -67q0 -44 -27.5 -68t-70.5 -24t-70.5 24t-27.5 68q0 43 28 67t70 24zM358 891q-21 0 -35.5 -13.5
t-14.5 -40.5q0 -25 15 -39t35 -14q21 0 36.5 14t15.5 39q0 27 -15 40.5t-37 13.5z" />
    <glyph glyph-name="uring" unicode="&#x16f;" horiz-adv-x="606" 
d="M262 -7q-192 0 -192 201v326h79v-320q0 -70 35.5 -107t99.5 -37q82 0 124 54.5t42 127.5v282h79v-520h-69l-7 95q-57 -102 -191 -102zM301 766q42 0 70 -24t28 -67q0 -44 -27.5 -68t-70.5 -24t-70.5 24t-27.5 68q0 43 28 67t70 24zM300 728q-21 0 -35.5 -13.5
t-14.5 -40.5q0 -25 15 -39t35 -14q21 0 36.5 14t15.5 39q0 27 -15 40.5t-37 13.5z" />
    <glyph glyph-name="Uhungarumlaut" unicode="&#x170;" horiz-adv-x="718" 
d="M635 700v-456q0 -118 -77 -185.5t-199 -67.5q-124 0 -200 68.5t-76 184.5v456h85v-460q0 -83 54.5 -132t136.5 -49q83 0 137 49t54 132v460h85zM523 859l-74 -113h-58l58 113h74zM380 859l-74 -113h-58l58 113h74z" />
    <glyph glyph-name="uhungarumlaut" unicode="&#x171;" horiz-adv-x="606" 
d="M262 -7q-192 0 -192 201v326h79v-320q0 -70 35.5 -107t99.5 -37q82 0 124 54.5t42 127.5v282h79v-520h-69l-7 95q-57 -102 -191 -102zM315 732l-74 -149h-58l58 149h74zM458 732l-74 -149h-58l58 149h74z" />
    <glyph glyph-name="Uogonek" unicode="&#x172;" horiz-adv-x="718" 
d="M635 700v-456q0 -96 -51 -158.5t-138 -84.5q-55 -36 -55 -87q0 -20 11 -31.5t27 -11.5q15 0 36 6l4 -42q-24 -11 -52 -11q-35 0 -56.5 19.5t-21.5 56.5q0 53 48 92q-5 0 -14 -0.5t-14 -0.5q-124 0 -200 68.5t-76 184.5v456h85v-460q0 -83 54.5 -132t136.5 -49
q83 0 137 49t54 132v460h85z" />
    <glyph glyph-name="uogonek" unicode="&#x173;" horiz-adv-x="606" 
d="M262 -7q-192 0 -192 201v326h79v-320q0 -70 35.5 -107t99.5 -37q82 0 124 54.5t42 127.5v282h79v-520q-55 -35 -55 -86q0 -20 10.5 -31.5t26.5 -11.5q15 0 36 6l4 -42q-24 -11 -52 -11q-34 0 -56 19.5t-22 56.5q0 57 59 100h-20l-7 95q-57 -102 -191 -102z" />
    <glyph glyph-name="Wcircumflex" unicode="&#x174;" horiz-adv-x="979" 
d="M948 700l-199 -700h-104l-156 566l-154 -566h-104l-200 700h93l100 -364q12 -44 33.5 -129.5l27.5 -108.5h1l159 593h89l160 -593h1q7 25 28 112t33 129l101 361h91zM530 859l109 -113h-70l-75 82l-76 -82h-70l109 113h73z" />
    <glyph glyph-name="wcircumflex" unicode="&#x175;" horiz-adv-x="819" 
d="M789 520l-159 -520h-90l-131 401l-131 -401h-90l-158 520h82l126 -435l136 424h71l135 -425l127 436h82zM449 732l109 -149h-68l-77 115l-78 -115h-68l109 149h73z" />
    <glyph glyph-name="Ycircumflex" unicode="&#x176;" horiz-adv-x="626" 
d="M355 0h-85v279l-251 421h88l206 -351l205 351h88l-251 -423v-277zM353 859l109 -113h-70l-75 82l-76 -82h-70l109 113h73z" />
    <glyph glyph-name="ycircumflex" unicode="&#x177;" horiz-adv-x="577" 
d="M543 520l-216 -554q-33 -85 -71.5 -112.5t-93.5 -27.5q-41 0 -92 9l3 61q48 -8 72 -8q37 0 60 21.5t42 67.5l9 22l-222 521h88l175 -435l164 435h82zM344 732l109 -149h-68l-77 115l-78 -115h-68l109 149h73z" />
    <glyph glyph-name="Ydieresis" unicode="&#x178;" horiz-adv-x="626" 
d="M355 0h-85v279l-251 421h88l206 -351l205 351h88l-251 -423v-277zM209 846q42 0 42 -40q0 -39 -42 -39q-41 0 -41 39q0 40 41 40zM416 846q41 0 41 -40q0 -39 -41 -39q-19 0 -30 10.5t-11 28.5t11 29t30 11z" />
    <glyph glyph-name="Zacute" unicode="&#x179;" horiz-adv-x="617" 
d="M573 700v-57l-434 -578l212 3h222v-68h-537v57l432 577l-210 -2h-207v68h522zM422 859l-82 -113h-58l67 113h73z" />
    <glyph glyph-name="zacute" unicode="&#x17a;" horiz-adv-x="510" 
d="M469 520v-63l-342 -402l164 2h178v-57h-429v62l345 403l-172 -2h-166v57h422zM340 731l-82 -148h-58l67 148h73z" />
    <glyph glyph-name="Zdotaccent" unicode="&#x17b;" horiz-adv-x="617" 
d="M573 700v-57l-434 -578l212 3h222v-68h-537v57l432 577l-210 -2h-207v68h522zM304 847q43 0 43 -39q0 -40 -43 -40q-19 0 -30 10.5t-11 29.5q0 18 11 28.5t30 10.5z" />
    <glyph glyph-name="zdotaccent" unicode="&#x17c;" horiz-adv-x="510" 
d="M469 520v-63l-342 -402l164 2h178v-57h-429v62l345 403l-172 -2h-166v57h422zM256 687q21 0 33.5 -11t12.5 -30t-12.5 -30t-33.5 -11q-20 0 -32 11t-12 30t12 30t32 11z" />
    <glyph glyph-name="Zcaron" unicode="&#x17d;" horiz-adv-x="617" 
d="M573 700v-57l-434 -578l212 3h222v-68h-537v57l432 577l-210 -2h-207v68h522zM451 859l-109 -113h-73l-109 113h70l76 -82l75 82h70z" />
    <glyph glyph-name="zcaron" unicode="&#x17e;" horiz-adv-x="510" 
d="M469 520v-63l-342 -402l164 2h178v-57h-429v62l345 403l-172 -2h-166v57h422zM402 732l-109 -149h-73l-109 149h68l78 -114l77 114h68z" />
    <glyph glyph-name="AEacute" unicode="&#x1fc;" horiz-adv-x="1027" 
d="M93 0h-87l411 700h548v-68h-405v-257h349v-68h-349v-239h418v-68h-503v193h-268zM469 634l-221 -373h227v373h-6zM763 859l-82 -113h-58l67 113h73z" />
    <glyph glyph-name="aeacute" unicode="&#x1fd;" horiz-adv-x="926" 
d="M650 527q112 0 174.5 -71t62.5 -183q0 -35 -3 -44h-416q1 -86 55.5 -129.5t150.5 -43.5q91 0 174 39l14 -58q-98 -44 -195 -44q-155 0 -230 96q-62 -96 -212 -96q-89 0 -140 38.5t-51 116.5q0 161 228 161q61 0 127 -6q4 41 23 80q-6 47 -41 65t-99 18q-91 0 -183 -26
l-12 59q94 28 209 28q140 0 180 -68q70 68 184 68zM653 464q-80 0 -128 -45.5t-55 -132.5h340q0 80 -39 129t-118 49zM271 254q-155 0 -155 -103q0 -99 130 -99q57 0 100.5 26t58.5 71q-17 49 -17 100q-75 5 -117 5zM586 727l-82 -148h-58l67 148h73z" />
    <glyph glyph-name="Oslashacute" unicode="&#x1fe;" horiz-adv-x="799" 
d="M400 709q100 0 179 -42l40 62h54l-55 -85q64 -47 99.5 -123t35.5 -172q0 -163 -96 -260.5t-257 -97.5q-101 0 -179 40l-41 -64h-54l57 88q-65 46 -100.5 121.5t-35.5 172.5q0 163 96.5 261.5t256.5 98.5zM400 641q-119 0 -191.5 -78.5t-72.5 -214.5q0 -150 89 -228
l314 485q-61 36 -139 36zM664 348q0 151 -89 230l-314 -485q60 -34 139 -34q121 0 192.5 77t71.5 212zM516 859l-82 -113h-58l67 113h73z" />
    <glyph glyph-name="oslashacute" unicode="&#x1ff;" horiz-adv-x="627" 
d="M314 528q72 0 127 -27l34 52h41l-44 -69q110 -71 110 -224q0 -123 -74 -195.5t-194 -72.5q-81 0 -141 33l-37 -58h-41l49 76q-98 74 -98 217q0 123 74 195.5t194 72.5zM500 260q0 111 -67 165l-222 -343q42 -27 103 -27q84 0 135 54t51 151zM314 465q-85 0 -135.5 -54
t-50.5 -151q0 -102 56 -156l220 340q-39 21 -90 21zM407 731l-82 -148h-58l67 148h73z" />
    <glyph glyph-name="Scommaaccent" unicode="&#x218;" horiz-adv-x="613" 
d="M306 709q122 0 235 -52l-24 -65q-10 6 -33 15.5t-73.5 21.5t-99.5 12q-78 0 -122 -30.5t-44 -85.5q0 -14 4 -27t8 -22.5t15.5 -19t18 -15.5t23.5 -13.5l24.5 -11t29.5 -10t29 -8t31 -8.5q58 -15 93.5 -27.5t73.5 -35.5t56 -57.5t18 -81.5q0 -97 -70 -147t-190 -50
q-73 0 -144.5 18.5t-115.5 42.5l22 65q130 -57 236 -57q89 0 131.5 31.5t42.5 86.5q0 25 -11 45t-24 32t-42.5 24t-47.5 17.5t-58 16.5q-45 11 -71.5 19.5t-63.5 25.5t-57 36t-35 51t-15 72q0 94 68.5 143t181.5 49zM294 -45h59q0 -21 -2.5 -38.5t-4.5 -26t-7.5 -29.5
t-8.5 -31h-50q15 82 14 125z" />
    <glyph glyph-name="scommaaccent" unicode="&#x219;" horiz-adv-x="481" 
d="M240 527q100 0 183 -34l-14 -53q-74 29 -157 29q-63 0 -94.5 -21.5t-31.5 -59.5q0 -12 3 -22t7 -17.5t14 -14l16.5 -10.5t22 -9t23.5 -7l28.5 -7.5t29.5 -7.5q34 -9 54 -15.5t46.5 -19.5t40.5 -27.5t24.5 -37.5t10.5 -53q0 -73 -55 -110t-145 -37q-103 0 -203 43l17 54
q92 -39 177 -39q64 0 96 22.5t32 60.5q0 12 -3.5 22t-7.5 17t-14 14t-16.5 10.5t-22.5 9t-24.5 7.5t-29 7.5t-29.5 7.5q-34 9 -51.5 14.5t-44.5 18.5t-40.5 27t-24.5 38t-11 54q0 72 52.5 109t141.5 37zM216 -45h59q0 -21 -2.5 -38.5t-4.5 -26t-7.5 -29.5t-8.5 -31h-50
q15 82 14 125z" />
    <glyph glyph-name="circumflex" unicode="&#x2c6;" horiz-adv-x="436" 
d="M255 715l109 -149h-68l-77 115l-78 -115h-68l109 149h73z" />
    <glyph glyph-name="caron" unicode="&#x2c7;" horiz-adv-x="436" 
d="M364 715l-109 -149h-73l-109 149h68l78 -114l77 114h68z" />
    <glyph glyph-name="breve" unicode="&#x2d8;" horiz-adv-x="419" 
d="M286 693l55 -6q-17 -109 -131 -109q-115 0 -132 109l55 6q9 -37 25.5 -54.5t51.5 -17.5q34 0 50 17.5t26 54.5z" />
    <glyph glyph-name="dotaccent" unicode="&#x2d9;" horiz-adv-x="239" 
d="M119 670q21 0 33.5 -11t12.5 -30t-12.5 -30t-33.5 -11q-20 0 -32 11t-12 30t12 30t32 11z" />
    <glyph glyph-name="ring" unicode="&#x2da;" horiz-adv-x="338" 
d="M170 749q42 0 70 -24t28 -67q0 -44 -27.5 -68t-70.5 -24t-70.5 24t-27.5 68q0 43 28 67t70 24zM169 711q-21 0 -35.5 -13.5t-14.5 -40.5q0 -25 15 -39t35 -14q21 0 36.5 14t15.5 39q0 27 -15 40.5t-37 13.5z" />
    <glyph glyph-name="ogonek" unicode="&#x2db;" horiz-adv-x="297" 
d="M187 22l13 -22q-55 -35 -55 -86q0 -20 10.5 -31.5t26.5 -11.5q15 0 36 6l4 -42q-24 -11 -52 -11q-34 0 -56 19.5t-22 56.5q0 71 95 122z" />
    <glyph glyph-name="tilde" unicode="&#x2dc;" horiz-adv-x="450" 
d="M343 676l30 -13q-25 -75 -88 -75q-25 0 -67 20q-46 22 -63 22q-30 0 -49 -34l-29 12q24 76 87 76q25 0 67 -21q40 -21 63 -21q30 0 49 34z" />
    <glyph glyph-name="hungarumlaut" unicode="&#x2dd;" horiz-adv-x="452" 
d="M226 715l-74 -149h-58l58 149h74zM369 715l-74 -149h-58l58 149h74z" />
    <glyph glyph-name="Wgrave" unicode="&#x1e80;" horiz-adv-x="979" 
d="M948 700l-199 -700h-104l-156 566l-154 -566h-104l-200 700h93l100 -364q12 -44 33.5 -129.5l27.5 -108.5h1l159 593h89l160 -593h1q7 25 28 112t33 129l101 361h91zM483 857l58 -111h-59l-73 111h74z" />
    <glyph glyph-name="wgrave" unicode="&#x1e81;" horiz-adv-x="819" 
d="M789 520l-159 -520h-90l-131 401l-131 -401h-90l-158 520h82l126 -435l136 424h71l135 -425l127 436h82zM328 731h74l58 -148h-59z" />
    <glyph glyph-name="Wacute" unicode="&#x1e82;" horiz-adv-x="979" 
d="M948 700l-199 -700h-104l-156 566l-154 -566h-104l-200 700h93l100 -364q12 -44 33.5 -129.5l27.5 -108.5h1l159 593h89l160 -593h1q7 25 28 112t33 129l101 361h91zM606 859l-82 -113h-58l67 113h73z" />
    <glyph glyph-name="wacute" unicode="&#x1e83;" horiz-adv-x="819" 
d="M789 520l-159 -520h-90l-131 401l-131 -401h-90l-158 520h82l126 -435l136 424h71l135 -425l127 436h82zM525 731l-82 -148h-58l67 148h73z" />
    <glyph glyph-name="Wdieresis" unicode="&#x1e84;" horiz-adv-x="979" 
d="M948 700l-199 -700h-104l-156 566l-154 -566h-104l-200 700h93l100 -364q12 -44 33.5 -129.5l27.5 -108.5h1l159 593h89l160 -593h1q7 25 28 112t33 129l101 361h91zM386 846q42 0 42 -40q0 -39 -42 -39q-41 0 -41 39q0 40 41 40zM593 846q41 0 41 -40q0 -39 -41 -39
q-19 0 -30 10.5t-11 28.5t11 29t30 11z" />
    <glyph glyph-name="wdieresis" unicode="&#x1e85;" horiz-adv-x="819" 
d="M789 520l-159 -520h-90l-131 401l-131 -401h-90l-158 520h82l126 -435l136 424h71l135 -425l127 436h82zM304 685q45 0 45 -41q0 -18 -12 -28.5t-33 -10.5q-20 0 -31 10.5t-11 28.5q0 41 42 41zM512 685q43 0 43 -41q0 -39 -43 -39q-21 0 -32 10.5t-11 28.5q0 41 43 41z
" />
    <glyph glyph-name="germandbls.case" unicode="&#x1e9e;" horiz-adv-x="722" 
d="M349 710q147 0 287 -92l-32 -43t-38.5 -54t-25.5 -52.5t-13 -62.5q0 -26 10.5 -47.5t26.5 -35l34.5 -30.5l34.5 -33t26.5 -43.5t10.5 -61.5q0 -87 -60.5 -131t-160.5 -44q-86 0 -179 31l12 64q83 -31 156 -31q68 0 108.5 28.5t40.5 85.5q0 31 -13 55t-31.5 41l-36.5 35
t-31 46t-13 65q0 14 1.5 28t5.5 27.5l7 24.5t10 24.5t10.5 21t12.5 21.5t11.5 17.5l12 17t9.5 14.5q-96 48 -185 48q-98 0 -141.5 -53t-43.5 -141v-450h-85v450q0 121 68.5 190.5t193.5 69.5z" />
    <glyph glyph-name="Ygrave" unicode="&#x1ef2;" horiz-adv-x="626" 
d="M355 0h-85v279l-251 421h88l206 -351l205 351h88l-251 -423v-277zM306 857l58 -111h-59l-73 111h74z" />
    <glyph glyph-name="ygrave" unicode="&#x1ef3;" horiz-adv-x="577" 
d="M543 520l-216 -554q-33 -85 -71.5 -112.5t-93.5 -27.5q-41 0 -92 9l3 61q48 -8 72 -8q37 0 60 21.5t42 67.5l9 22l-222 521h88l175 -435l164 435h82zM179 731h74l58 -148h-59z" />
    <glyph glyph-name="endash" unicode="&#x2013;" horiz-adv-x="713" 
d="M639 298v-60h-565v60h565z" />
    <glyph glyph-name="emdash" unicode="&#x2014;" horiz-adv-x="972" 
d="M898 299v-61h-824v61h824z" />
    <glyph glyph-name="quoteleft" unicode="&#x2018;" horiz-adv-x="248" 
d="M129 483q-26 0 -43.5 22t-17.5 59q0 81 91 128l17 -28q-66 -35 -66 -95q0 -11 3 -21q4 20 24 20q39 0 39 -40q0 -20 -13 -32.5t-34 -12.5z" />
    <glyph glyph-name="quoteright" unicode="&#x2019;" horiz-adv-x="248" 
d="M120 689q26 0 43 -22t17 -58q0 -83 -91 -128l-17 27q66 35 66 96q0 10 -3 20q-6 -19 -24 -19q-39 0 -39 40q0 20 13 32t35 12z" />
    <glyph glyph-name="quotesinglbase" unicode="&#x201a;" horiz-adv-x="248" 
d="M120 85q25 0 42.5 -22t17.5 -59q0 -81 -91 -128l-17 28q66 33 66 95q0 11 -3 21q-4 -20 -24 -20q-39 0 -39 40q0 20 13 32.5t35 12.5z" />
    <glyph glyph-name="quotedblleft" unicode="&#x201c;" horiz-adv-x="411" 
d="M322 692l17 -27q-66 -35 -66 -95q0 -10 3 -21q4 19 24 19q39 0 39 -39q0 -20 -13 -32.5t-34 -12.5q-26 0 -43.5 22t-17.5 59q0 81 91 127zM159 692l17 -27q-66 -35 -66 -95q0 -10 3 -21q4 19 24 19q39 0 39 -39q0 -20 -13 -32.5t-34 -12.5q-26 0 -43.5 22t-17.5 59
q0 81 91 127z" />
    <glyph glyph-name="quotedblright" unicode="&#x201d;" horiz-adv-x="412" 
d="M120 690q26 0 43 -22t17 -59q0 -81 -91 -127l-17 27q66 35 66 96q0 9 -3 20q-5 -20 -24 -20q-39 0 -39 40q0 20 13 32.5t35 12.5zM284 690q26 0 43 -22t17 -59q0 -81 -91 -127l-17 27q66 35 66 95q0 10 -3 21q-5 -20 -24 -20q-39 0 -39 40q0 20 13 32.5t35 12.5z" />
    <glyph glyph-name="quotedblbase" unicode="&#x201e;" horiz-adv-x="411" 
d="M283 85q26 0 43 -22t17 -59q0 -81 -91 -128l-17 28q66 33 66 95q0 11 -3 21q-4 -20 -24 -20q-39 0 -39 40q0 20 13 32.5t35 12.5zM120 85q26 0 43 -22t17 -59q0 -81 -91 -128l-17 28q66 33 66 95q0 11 -3 21q-4 -20 -24 -20q-39 0 -39 40q0 20 13 32.5t35 12.5z" />
    <glyph glyph-name="dagger" unicode="&#x2020;" horiz-adv-x="540" 
d="M303 701l-8 -701h-50l-9 701h67zM49 538l147 -11v-35l-147 -10v56zM490 538v-56l-147 10v35z" />
    <glyph glyph-name="daggerdbl" unicode="&#x2021;" horiz-adv-x="577" 
d="M323 701l-8 -701h-51l-9 701h68zM68 269l147 -11v-36l-147 -11v58zM509 269v-58l-147 11v36zM68 538l147 -11v-35l-147 -10v56zM509 538v-56l-147 10v35z" />
    <glyph glyph-name="bullet" unicode="&#x2022;" horiz-adv-x="382" 
d="M191 431q38 0 62 -22t24 -62q0 -39 -24.5 -61t-61.5 -22q-38 0 -62.5 22t-24.5 61t24.5 61.5t62.5 22.5z" />
    <glyph glyph-name="ellipsis" unicode="&#x2026;" horiz-adv-x="614" 
d="M503 81q21 0 34 -12.5t13 -32.5q0 -21 -13 -32.5t-34 -11.5q-46 0 -46 44q0 20 12.5 32.5t33.5 12.5zM118 81q21 0 34 -12.5t13 -32.5q0 -21 -13 -32.5t-34 -11.5q-46 0 -46 44q0 20 12.5 32.5t33.5 12.5zM311 81q21 0 34 -12.5t13 -32.5q0 -21 -13 -32.5t-34 -11.5
q-46 0 -46 44q0 20 12.5 32.5t33.5 12.5z" />
    <glyph glyph-name="perthousand" unicode="&#x2030;" horiz-adv-x="1213" 
d="M638 701l-402 -701h-66l404 701h64zM610 328q70 0 113 -46.5t43 -122.5q0 -75 -43 -121.5t-115 -46.5q-70 0 -114 46.5t-44 120.5q0 76 44.5 123t115.5 47zM608 276q-42 0 -69.5 -32.5t-27.5 -85.5q0 -52 28 -84t70 -32t69 32t27 84q0 54 -27 86t-70 32zM1014 328
q70 0 113 -46.5t43 -122.5q0 -75 -43 -121.5t-115 -46.5q-70 0 -114 46.5t-44 120.5q0 76 44.5 123t115.5 47zM1012 276q-42 0 -69.5 -32.5t-27.5 -85.5q0 -52 28 -84t70 -32t69 32t27 84q0 54 -27 86t-70 32zM204 710q71 0 114 -46t43 -122t-43.5 -122.5t-115.5 -46.5
q-70 0 -113.5 46.5t-43.5 120.5q0 77 44 123.5t115 46.5zM202 658q-42 0 -69.5 -32.5t-27.5 -84.5t28 -84t70 -32t69 32t27 84q0 53 -26.5 85t-70.5 32z" />
    <glyph glyph-name="guilsinglleft" unicode="&#x2039;" horiz-adv-x="356" 
d="M297 455l-154 -195l154 -198l-42 -42l-204 230v17l205 231z" />
    <glyph glyph-name="guilsinglright" unicode="&#x203a;" horiz-adv-x="356" 
d="M101 498l204 -231v-17l-204 -230l-42 42l154 198l-154 195z" />
    <glyph glyph-name="fraction" unicode="&#x2044;" horiz-adv-x="409" 
d="M393 701l-312 -701h-65l312 701h65z" />
    <glyph glyph-name="Euro" unicode="&#x20ac;" horiz-adv-x="769" 
d="M492 709q112 0 203 -44l-23 -62q-76 38 -166 38q-109 0 -178 -56t-91 -154h338l-15 -39h-329q-2 -30 -2 -45q0 -29 2 -43h297l-14 -39h-277q21 -96 90.5 -151t177.5 -55q74 0 165 34l2 -66q-81 -36 -182 -36q-135 0 -227 72.5t-116 201.5h-82l15 39h62q-2 14 -2 45
q0 15 2 43h-85l15 39h75q24 130 117 204t228 74z" />
    <glyph glyph-name="trademark" unicode="&#x2122;" horiz-adv-x="789" 
d="M702 700v-307h-43v224l-91 -172h-30l-97 172v-224h-43v307h42l113 -206l106 206h43zM327 700v-42h-107v-265h-43v265h-107v42h257z" />
    <glyph glyph-name="commaaccentcomb" unicode="&#xf6c3;" horiz-adv-x="0" 
d="M-156 -45h59q0 -21 -2.5 -38.5t-4.5 -26t-7.5 -29.5t-8.5 -31h-50q15 82 14 125z" />
    <glyph glyph-name="apple" unicode="&#xf8ff;" horiz-adv-x="1413" 
d="M321 356v-108q0 -34 -16.5 -49.5t-53.5 -15.5q-42 0 -62 12l6 32q20 -7 36 -7q28 0 28 16v10q-15 -9 -32 -9q-45 0 -45 49v70h63v-80q0 -12 14 -6v86h62zM787 409v-168h-58l-3 11q-18 -15 -37 -15q-49 0 -49 62q0 61 51 61q16 0 32 -10v59h64zM439 360q21 0 33.5 -15.5
t12.5 -44.5q0 -63 -50 -63q-20 0 -33 11v-60h-64v168h53l4 -13q19 17 44 17zM1047 360q21 0 33.5 -15.5t12.5 -44.5q0 -63 -50 -63q-20 0 -33 11v-60h-64v168h53l4 -13q19 17 44 17zM1172 360h1q68 0 68 -61q0 -62 -67 -62h-2q-35 0 -51 15t-16 47t16 46.5t51 14.5zM567 360
q61 0 61 -46q0 -17 -1 -26h-73q3 -17 29 -17q24 0 40 5v-29q-25 -10 -53 -10q-73 0 -73 61q0 62 70 62zM870 361q61 0 61 -46q0 -17 -1 -26h-73q3 -17 29 -17q22 0 40 5v-29q-27 -10 -53 -10q-73 0 -73 61q0 62 70 62zM1332 400v-44h28v-37h-28v-19q0 -23 30 -15l1 -37
q-18 -8 -40 -8q-29 0 -41.5 11.5t-12.5 40.5v27h-22v37h22l8 44h55zM135 400v-44h29v-37h-29v-19q0 -23 31 -15l1 -37q-18 -8 -41 -8q-28 0 -40.5 11.5t-12.5 40.5v27h-23v37h23l8 44h54zM714 322q-17 0 -17 -25q0 -26 12 -26q8 0 15 7v41q-6 3 -10 3zM415 320q-7 0 -14 -7
v-37q7 -5 12 -5q15 0 15 25q0 24 -13 24zM1023 320q-7 0 -14 -7v-37q7 -5 12 -5q15 0 15 25q0 24 -13 24zM1173 326q-10 0 -10 -25q0 -27 10 -27q9 0 9 27q0 25 -9 25zM870 328q-14 0 -14 -20h25q4 20 -11 20zM567 327q-14 0 -14 -20h25q4 20 -11 20z" />
    <glyph glyph-name="J.alt" horiz-adv-x="299" 
d="M209 700v-637q0 -74 -51 -126t-124 -78l-27 57q117 54 117 155v563h-64v66h149z" />
    <glyph glyph-name="Jcircumflex.alt" horiz-adv-x="299" 
d="M209 700v-637q0 -74 -51 -126t-124 -78l-27 57q117 54 117 155v563h-64v66h149zM192 859l109 -113h-70l-75 82l-76 -82h-70l109 113h73z" />
    <glyph glyph-name="a.alt" horiz-adv-x="637" 
d="M289 528q62 0 113.5 -25t81.5 -72l8 89h68v-520h-79v91q-58 -99 -190 -99q-115 0 -180 76t-65 192q0 115 65 191.5t178 76.5zM301 465q-80 0 -126.5 -55.5t-46.5 -149.5q0 -96 47 -150.5t126 -54.5q78 0 129.5 53.5t51.5 152.5q0 98 -51.5 151t-129.5 53z" />
    <glyph glyph-name="aacute.alt" horiz-adv-x="637" 
d="M289 528q62 0 113.5 -25t81.5 -72l8 89h68v-520h-79v91q-58 -99 -190 -99q-115 0 -180 76t-65 192q0 115 65 191.5t178 76.5zM301 465q-80 0 -126.5 -55.5t-46.5 -149.5q0 -96 47 -150.5t126 -54.5q78 0 129.5 53.5t51.5 152.5q0 98 -51.5 151t-129.5 53zM399 731
l-82 -148h-58l67 148h73z" />
    <glyph glyph-name="abreve.alt" horiz-adv-x="637" 
d="M289 528q62 0 113.5 -25t81.5 -72l8 89h68v-520h-79v91q-58 -99 -190 -99q-115 0 -180 76t-65 192q0 115 65 191.5t178 76.5zM301 465q-80 0 -126.5 -55.5t-46.5 -149.5q0 -96 47 -150.5t126 -54.5q78 0 129.5 53.5t51.5 152.5q0 98 -51.5 151t-129.5 53zM402 710l55 -6
q-17 -109 -131 -109q-115 0 -132 109l55 6q9 -37 25.5 -54.5t51.5 -17.5q34 0 50 17.5t26 54.5z" />
    <glyph glyph-name="acircumflex.alt" horiz-adv-x="637" 
d="M289 528q62 0 113.5 -25t81.5 -72l8 89h68v-520h-79v91q-58 -99 -190 -99q-115 0 -180 76t-65 192q0 115 65 191.5t178 76.5zM301 465q-80 0 -126.5 -55.5t-46.5 -149.5q0 -96 47 -150.5t126 -54.5q78 0 129.5 53.5t51.5 152.5q0 98 -51.5 151t-129.5 53zM366 732
l109 -149h-68l-77 115l-78 -115h-68l109 149h73z" />
    <glyph glyph-name="adieresis.alt" horiz-adv-x="637" 
d="M289 528q62 0 113.5 -25t81.5 -72l8 89h68v-520h-79v91q-58 -99 -190 -99q-115 0 -180 76t-65 192q0 115 65 191.5t178 76.5zM301 465q-80 0 -126.5 -55.5t-46.5 -149.5q0 -96 47 -150.5t126 -54.5q78 0 129.5 53.5t51.5 152.5q0 98 -51.5 151t-129.5 53zM221 685
q45 0 45 -41q0 -18 -12 -28.5t-33 -10.5q-20 0 -31 10.5t-11 28.5q0 41 42 41zM429 685q43 0 43 -41q0 -39 -43 -39q-21 0 -32 10.5t-11 28.5q0 41 43 41z" />
    <glyph glyph-name="agrave.alt" horiz-adv-x="637" 
d="M289 528q62 0 113.5 -25t81.5 -72l8 89h68v-520h-79v91q-58 -99 -190 -99q-115 0 -180 76t-65 192q0 115 65 191.5t178 76.5zM301 465q-80 0 -126.5 -55.5t-46.5 -149.5q0 -96 47 -150.5t126 -54.5q78 0 129.5 53.5t51.5 152.5q0 98 -51.5 151t-129.5 53zM221 731h74
l58 -148h-59z" />
    <glyph glyph-name="amacron.alt" horiz-adv-x="637" 
d="M289 528q62 0 113.5 -25t81.5 -72l8 89h68v-520h-79v91q-58 -99 -190 -99q-115 0 -180 76t-65 192q0 115 65 191.5t178 76.5zM301 465q-80 0 -126.5 -55.5t-46.5 -149.5q0 -96 47 -150.5t126 -54.5q78 0 129.5 53.5t51.5 152.5q0 98 -51.5 151t-129.5 53zM475 674v-48
h-298v48h298z" />
    <glyph glyph-name="aogonek.alt" horiz-adv-x="637" 
d="M289 528q62 0 113.5 -25t81.5 -72l8 89h68v-520h-1q-55 -35 -55 -86q0 -20 10.5 -31.5t26.5 -11.5q15 0 36 6l4 -42q-24 -11 -52 -11q-34 0 -56 19.5t-22 56.5q0 57 59 100h-29v91q-58 -99 -190 -99q-115 0 -180 76t-65 192q0 115 65 191.5t178 76.5zM301 465
q-80 0 -126.5 -55.5t-46.5 -149.5q0 -96 47 -150.5t126 -54.5q78 0 129.5 53.5t51.5 152.5q0 98 -51.5 151t-129.5 53z" />
    <glyph glyph-name="aring.alt" horiz-adv-x="637" 
d="M289 528q62 0 113.5 -25t81.5 -72l8 89h68v-520h-79v91q-58 -99 -190 -99q-115 0 -180 76t-65 192q0 115 65 191.5t178 76.5zM301 465q-80 0 -126.5 -55.5t-46.5 -149.5q0 -96 47 -150.5t126 -54.5q78 0 129.5 53.5t51.5 152.5q0 98 -51.5 151t-129.5 53zM326 766
q42 0 70 -24t28 -67q0 -44 -27.5 -68t-70.5 -24t-70.5 24t-27.5 68q0 43 28 67t70 24zM325 728q-21 0 -35.5 -13.5t-14.5 -40.5q0 -25 15 -39t35 -14q21 0 36.5 14t15.5 39q0 27 -15 40.5t-37 13.5z" />
    <glyph glyph-name="atilde.alt" horiz-adv-x="637" 
d="M289 528q62 0 113.5 -25t81.5 -72l8 89h68v-520h-79v91q-58 -99 -190 -99q-115 0 -180 76t-65 192q0 115 65 191.5t178 76.5zM301 465q-80 0 -126.5 -55.5t-46.5 -149.5q0 -96 47 -150.5t126 -54.5q78 0 129.5 53.5t51.5 152.5q0 98 -51.5 151t-129.5 53zM445 693l30 -13
q-25 -75 -88 -75q-25 0 -67 20q-46 22 -63 22q-30 0 -49 -34l-29 12q24 76 87 76q25 0 67 -21q40 -21 63 -21q30 0 49 34z" />
    <glyph glyph-name="g.alt" horiz-adv-x="628" 
d="M284 527q68 0 119.5 -29.5t73.5 -77.5l7 100h67v-450q0 -244 -259 -244q-127 0 -223 49l22 58q97 -44 194 -44q85 0 135.5 42.5t51.5 131.5v56q-24 -49 -75.5 -75.5t-113.5 -26.5q-106 0 -171.5 64t-65.5 191q0 125 66 190t172 65zM301 464q-86 0 -129.5 -50.5
t-43.5 -141.5t44 -141.5t130 -50.5q82 0 126.5 52t44.5 141q0 87 -44.5 139t-127.5 52z" />
    <glyph glyph-name="gbreve.alt" horiz-adv-x="628" 
d="M284 527q68 0 119.5 -29.5t73.5 -77.5l7 100h67v-450q0 -244 -259 -244q-127 0 -223 49l22 58q97 -44 194 -44q85 0 135.5 42.5t51.5 131.5v56q-24 -49 -75.5 -75.5t-113.5 -26.5q-106 0 -171.5 64t-65.5 191q0 125 66 190t172 65zM301 464q-86 0 -129.5 -50.5
t-43.5 -141.5t44 -141.5t130 -50.5q82 0 126.5 52t44.5 141q0 87 -44.5 139t-127.5 52zM398 710l55 -6q-17 -109 -131 -109q-115 0 -132 109l55 6q9 -37 25.5 -54.5t51.5 -17.5q34 0 50 17.5t26 54.5z" />
    <glyph glyph-name="gcircumflex.alt" horiz-adv-x="628" 
d="M284 527q68 0 119.5 -29.5t73.5 -77.5l7 100h67v-450q0 -244 -259 -244q-127 0 -223 49l22 58q97 -44 194 -44q85 0 135.5 42.5t51.5 131.5v56q-24 -49 -75.5 -75.5t-113.5 -26.5q-106 0 -171.5 64t-65.5 191q0 125 66 190t172 65zM301 464q-86 0 -129.5 -50.5
t-43.5 -141.5t44 -141.5t130 -50.5q82 0 126.5 52t44.5 141q0 87 -44.5 139t-127.5 52zM361 732l109 -149h-68l-77 115l-78 -115h-68l109 149h73z" />
    <glyph glyph-name="gcommaaccent.alt" horiz-adv-x="628" 
d="M284 527q68 0 119.5 -29.5t73.5 -77.5l7 100h67v-450q0 -244 -259 -244q-127 0 -223 49l22 58q97 -44 194 -44q85 0 135.5 42.5t51.5 131.5v56q-24 -49 -75.5 -75.5t-113.5 -26.5q-106 0 -171.5 64t-65.5 191q0 125 66 190t172 65zM301 464q-86 0 -129.5 -50.5
t-43.5 -141.5t44 -141.5t130 -50.5q82 0 126.5 52t44.5 141q0 87 -44.5 139t-127.5 52zM324 582h-59q0 21 2.5 38.5t4.5 26t7.5 29.5t8.5 31h50q-15 -82 -14 -125z" />
    <glyph glyph-name="gdotaccent.alt" horiz-adv-x="628" 
d="M284 527q68 0 119.5 -29.5t73.5 -77.5l7 100h67v-450q0 -244 -259 -244q-127 0 -223 49l22 58q97 -44 194 -44q85 0 135.5 42.5t51.5 131.5v56q-24 -49 -75.5 -75.5t-113.5 -26.5q-106 0 -171.5 64t-65.5 191q0 125 66 190t172 65zM301 464q-86 0 -129.5 -50.5
t-43.5 -141.5t44 -141.5t130 -50.5q82 0 126.5 52t44.5 141q0 87 -44.5 139t-127.5 52zM317 687q21 0 33.5 -11t12.5 -30t-12.5 -30t-33.5 -11q-20 0 -32 11t-12 30t12 30t32 11z" />
    <glyph glyph-name="j.alt" horiz-adv-x="253" 
d="M172 520v-508q0 -41 -14.5 -73.5t-41 -54t-44.5 -32t-45 -22.5l-29 53q1 0 13.5 7.5t20 12.5t20.5 16.5t21 22.5t14 27t6 34v460h-68v57h147zM125 694q47 0 47 -42t-47 -42t-47 42t47 42z" />
    <glyph glyph-name="jcircumflex.alt" horiz-adv-x="251" 
d="M172 520v-508q0 -41 -14.5 -73.5t-41 -54t-44.5 -32t-45 -22.5l-29 53q1 0 13.5 7.5t20 12.5t20.5 16.5t21 22.5t14 27t6 34v460h-68v57h147zM159 732l109 -149h-68l-77 115l-78 -115h-68l109 149h73z" />
    <glyph glyph-name="f_b" horiz-adv-x="958" 
d="M287 739q84 0 138.5 -47t54.5 -137v-124q60 97 196 97q113 0 176 -76t63 -193t-62 -192t-177 -75q-141 0 -199 98l-8 -90h-68v554q0 62 -32.5 93.5t-81.5 31.5q-48 0 -79 -31.5t-31 -91.5v-36h121v-57h-121v-463h-79v463h-74v57h74v33q0 87 51.5 136.5t137.5 49.5z
M656 465q-73 0 -125 -54t-52 -152q0 -97 51.5 -150.5t124.5 -53.5q84 0 131 54.5t47 149.5q0 97 -46.5 151.5t-130.5 54.5z" />
    <glyph glyph-name="f_f_b" horiz-adv-x="1234" 
d="M952 528q113 0 176 -76t63 -193t-62 -192t-177 -75q-141 0 -199 98l-8 -90h-68v560q0 62 -32 93.5t-81 31.5q-48 0 -79 -32.5t-31 -92.5v-40h120v-57h-120v-463h-79v463h-198v-463h-79v463h-74v57h74v58q0 81 32.5 121t112.5 40q39 0 71 -8l-8 -58q-34 6 -50 6
q-43 0 -61 -23.5t-18 -71.5v-64h198v40q0 86 51.5 136t137.5 50q84 0 138 -47t54 -139v-129q60 97 196 97zM931 55q84 0 131 54.5t47 149.5q0 97 -46.5 151.5t-130.5 54.5q-73 0 -125 -54t-52 -152q0 -97 51.5 -150.5t124.5 -53.5z" />
    <glyph glyph-name="f_f_h" horiz-adv-x="1211" 
d="M564 746q84 0 138 -46.5t54 -138.5v-136q59 102 188 102q192 0 192 -201v-326h-79v320q0 71 -35.5 108.5t-99.5 37.5q-82 0 -124 -54.5t-42 -129.5v-282h-79v562q0 60 -32.5 91.5t-80.5 31.5q-49 0 -79.5 -32t-30.5 -91v-42h120v-57h-120v-463h-79v463h-198v-463h-79v463
h-74v57h74v58q0 81 32.5 121t112.5 40q39 0 71 -8l-8 -58q-34 6 -51 6q-42 0 -60 -23.5t-18 -71.5v-64h198v40q0 86 51.5 136t137.5 50z" />
    <glyph glyph-name="f_f_k" horiz-adv-x="1111" 
d="M570 746q83 0 137 -47t54 -139v-310l267 270h88l-197 -200l200 -320h-89l-164 266l-105 -107v-159h-79v562q0 60 -32 91.5t-80 31.5q-49 0 -79.5 -32t-30.5 -91v-42h120v-57h-120v-463h-79v463h-198v-463h-79v463h-74v57h74v58q0 81 32.5 121t112.5 40q39 0 71 -8l-8 -58
q-34 6 -51 6q-42 0 -60 -23.5t-18 -71.5v-64h198v40q0 86 51.5 136t137.5 50z" />
    <glyph glyph-name="f_h" horiz-adv-x="935" 
d="M668 527q192 0 192 -201v-326h-79v320q0 71 -35.5 108.5t-99.5 37.5q-82 0 -124 -54.5t-42 -129.5v-282h-79v555q0 61 -32.5 92.5t-81.5 31.5q-48 0 -79 -32t-31 -92v-35h121v-57h-121v-463h-79v463h-74v57h74v33q0 87 51.5 136.5t137.5 49.5q84 0 138.5 -46.5
t54.5 -137.5v-128q60 100 188 100z" />
    <glyph glyph-name="f_k" horiz-adv-x="847" 
d="M287 739q83 0 137.5 -46.5t54.5 -137.5v-305l268 270h88l-197 -200l200 -320h-89l-164 266l-106 -107v-159h-79v555q0 62 -32 93t-81 31q-48 0 -79 -32t-31 -92v-35h121v-57h-121v-463h-79v463h-74v57h74v33q0 87 51.5 136.5t137.5 49.5z" />
    <glyph glyph-name="zero.tnum" 
d="M352 -9q-133 0 -210.5 98t-77.5 261q0 162 77.5 260.5t211.5 98.5q132 0 209 -98t77 -259q0 -163 -77.5 -262t-209.5 -99zM352 59q96 0 148.5 77.5t52.5 213.5q0 134 -53.5 212.5t-147.5 78.5q-96 0 -149 -77.5t-53 -212.5q0 -136 53 -214t149 -78z" />
    <glyph glyph-name="one.tnum" 
d="M415 701v-639h191v-62h-472v62h197v561l-169 -64l-28 58l215 84h66z" />
    <glyph glyph-name="two.tnum" 
d="M140 587l-23 63q108 59 223 59q105 0 172.5 -53.5t67.5 -150.5q0 -43 -13 -79.5t-43.5 -72t-51 -54.5t-63.5 -56l-204 -174h385v-69h-489v62l262 232q71 66 94 98q36 52 36 106q0 64 -45 103.5t-125 39.5q-78 0 -183 -54z" />
    <glyph glyph-name="three.tnum" 
d="M339 709q105 0 169.5 -45.5t64.5 -129.5q0 -59 -35 -102.5t-105 -60.5q76 -14 121.5 -62.5t45.5 -117.5q0 -98 -75 -149t-198 -51q-122 0 -216 49l25 61q82 -42 184 -42q84 0 138 35t54 108q0 67 -55.5 104.5t-132.5 38.5h-69v57h65q70 0 119 29.5t49 92.5q0 60 -47.5 88
t-119.5 28q-87 0 -171 -38l-21 60q36 17 95.5 32t114.5 15z" />
    <glyph glyph-name="four.tnum" 
d="M541 701v-470h88v-64h-88v-167h-82v167h-386v58l394 476h74zM157 231h302v362z" />
    <glyph glyph-name="five.tnum" 
d="M565 700v-68h-345l-14 -238q61 41 160 41q110 0 173.5 -58t63.5 -154q0 -106 -72.5 -169t-198.5 -63q-127 0 -228 55l27 62q93 -50 190 -50q89 0 143 42.5t54 119.5q0 73 -48 113t-129 40q-78 0 -152 -52l-53 35l23 344h406z" />
    <glyph glyph-name="six.tnum" 
d="M393 709q118 0 211 -50l-29 -58q-84 41 -172 41q-113 0 -172 -88q-47 -68 -52 -196v-8v-8v-7.5v-7.5q28 51 84 81.5t133 30.5q101 0 165.5 -57t64.5 -162q0 -107 -70 -168t-184 -61q-163 0 -230 128q-48 86 -48 216q0 166 79 267q77 107 220 107zM369 377
q-79 0 -126.5 -48.5t-47.5 -114.5q0 -72 48.5 -115t124.5 -43q79 0 126 42t47 119q0 74 -47 117t-125 43z" />
    <glyph glyph-name="seven.tnum" 
d="M630 700v-66l-329 -634h-93l334 629h-431v71h519z" />
    <glyph glyph-name="eight.tnum" 
d="M352 709q104 0 167.5 -47.5t63.5 -129.5q0 -58 -33 -101t-98 -61q78 -16 120.5 -64.5t42.5 -118.5q0 -95 -72.5 -145.5t-190.5 -50.5t-191 50.5t-73 145.5q0 70 43 118.5t121 64.5q-65 18 -98.5 60.5t-33.5 101.5q0 82 64 129.5t168 47.5zM353 335q-83 0 -131 -38
t-48 -103q0 -68 50 -104t129 -36q78 0 127 36t49 103t-47.5 104.5t-128.5 37.5zM353 644q-68 0 -109.5 -32t-41.5 -89q0 -55 39.5 -88t110.5 -33t110 33t39 88q0 57 -40.5 89t-107.5 32z" />
    <glyph glyph-name="nine.tnum" 
d="M340 709q160 0 227 -123q52 -83 52 -221q0 -172 -75 -268q-81 -106 -227 -106q-117 0 -211 50l30 57q84 -40 171 -40q121 0 179 87q45 65 48 197v25q-29 -49 -86 -77.5t-134 -28.5q-100 0 -165 58t-65 160q0 108 70.5 169t185.5 61zM343 644q-80 0 -127 -42t-47 -122
q0 -72 47 -114t125 -42q81 0 129 47.5t48 114.5q0 72 -49 115t-126 43z" />
    <glyph glyph-name="exclamdown.case" horiz-adv-x="262" 
d="M165 514l11 -514h-89l11 514h67zM130 712q49 0 49 -45q0 -21 -13.5 -32.5t-35.5 -11.5q-48 0 -48 44q0 45 48 45z" />
    <glyph glyph-name="questiondown.case" horiz-adv-x="475" 
d="M301 513v-69q0 -41 -18.5 -73t-45 -52.5l-53 -40.5t-45 -47.5t-18.5 -61.5q0 -53 38.5 -80t95.5 -27q76 0 150 46l26 -59q-81 -55 -181 -55q-85 0 -146 42.5t-61 125.5q0 38 14 68.5t35.5 49t46 37.5l46 34.5t35.5 40t14 54.5v67h67zM266 712q49 0 49 -46q0 -44 -49 -44
q-48 0 -48 44q0 46 48 46z" />
    <glyph glyph-name="braceleft.case" horiz-adv-x="332" 
d="M285 795v-60h-32q-45 0 -63 -19t-18 -58v-223q0 -74 -68 -84q68 -9 68 -84v-223q0 -39 18 -58t63 -19h32v-60h-38q-79 0 -109.5 35.5t-30.5 103.5v217q0 60 -67 63v51q34 2 50.5 16.5t16.5 46.5v214q0 69 30.5 105t109.5 36h38z" />
    <glyph glyph-name="braceright.case" horiz-adv-x="332" 
d="M47 795h39q79 0 109.5 -36t30.5 -105v-214q0 -32 16 -46.5t50 -16.5v-51q-66 -3 -66 -63v-217q0 -68 -30.5 -103.5t-109.5 -35.5h-39v60h33q45 0 63 19t18 58v223q0 75 68 84q-68 10 -68 84v223q0 39 -18 58t-63 19h-33v60z" />
    <glyph glyph-name="bracketleft.case" horiz-adv-x="303" 
d="M256 733h-100v-767h100v-59h-165v888h165v-62z" />
    <glyph glyph-name="bracketright.case" horiz-adv-x="303" 
d="M47 795h166v-888h-166v59h99v767h-99v62z" />
    <glyph glyph-name="parenleft.case" horiz-adv-x="334" 
d="M239 816h80q-186 -184 -186 -460q0 -278 186 -459h-80q-73 65 -130 184.5t-57 274.5t57 274t130 186z" />
    <glyph glyph-name="parenright.case" horiz-adv-x="334" 
d="M15 816h80q73 -67 130 -186t57 -274t-57 -274.5t-130 -184.5h-80q186 181 186 459q0 276 -186 460z" />
    <glyph glyph-name="emdash.case" horiz-adv-x="972" 
d="M898 382v-60h-824v60h824z" />
    <glyph glyph-name="endash.case" horiz-adv-x="713" 
d="M639 382v-60h-565v60h565z" />
    <glyph glyph-name="hyphen.case" horiz-adv-x="508" 
d="M434 382v-60h-360v60h360z" />
    <glyph glyph-name="hyphen.tnum" 
d="M550 382v-59h-397v59h397z" />
    <glyph glyph-name="guillemotleft.case" horiz-adv-x="588" 
d="M487 578l42 -42l-158 -196l158 -195l-42 -43l-204 230v16zM255 578l42 -42l-158 -196l158 -195l-42 -43l-204 230v16z" />
    <glyph glyph-name="guillemotright.case" horiz-adv-x="588" 
d="M332 578l204 -230v-16l-203 -230l-43 42l158 196l-158 195zM101 578l204 -230v-16l-203 -230l-43 42l158 196l-158 195z" />
    <glyph glyph-name="guilsinglleft.case" horiz-adv-x="356" 
d="M255 578l42 -42l-158 -196l158 -195l-42 -43l-204 230v16z" />
    <glyph glyph-name="guilsinglright.case" horiz-adv-x="356" 
d="M101 579l204 -231v-15l-203 -231l-43 43l158 196l-158 195z" />
    <glyph glyph-name="cent.tnum" 
d="M406 688v-81q73 -3 140 -31l-16 -56q-63 24 -124 24q-101 0 -154.5 -55t-53.5 -149t54 -149t156 -55q60 0 126 26l14 -57q-71 -30 -142 -32v-80h-46v81q-112 10 -178 79.5t-66 186.5q0 116 66.5 186t177.5 79v83h46z" />
    <glyph glyph-name="dollar.tnum" 
d="M377 791v-82q106 -5 198 -46l-24 -63q-21 12 -77 27.5t-115 15.5q-76 0 -118.5 -30.5t-42.5 -85.5q0 -28 12 -50.5t26 -35t46.5 -25.5t50.5 -17.5l61 -15.5q48 -12 81.5 -25.5t65 -35.5t47.5 -56t16 -79q0 -91 -60.5 -140t-166.5 -57v-83h-47v84q-128 10 -218 52l21 63
q109 -49 219 -49q80 0 122 31.5t42 87.5q0 32 -13.5 55t-40.5 37.5t-55 23.5t-70 20q-9 2 -13 3q-47 12 -80 25t-66 35.5t-50 58t-17 82.5q0 87 57.5 137.5t161.5 55.5v82h47z" />
    <glyph glyph-name="Euro.tnum" 
d="M459 709q112 0 203 -44l-23 -62q-76 38 -166 38q-109 0 -178 -56t-91 -154h337l-15 -39h-328q-2 -30 -2 -45q0 -29 2 -43h296l-14 -39h-276q21 -96 90.5 -151t177.5 -55q74 0 165 34l2 -66q-81 -36 -182 -36q-135 0 -227 72.5t-116 201.5h-83l15 39h63q-2 14 -2 45
q0 15 2 43h-86l15 39h76q24 130 117 204t228 74z" />
    <glyph glyph-name="sterling.tnum" 
d="M526 355v-44h-253q9 -49 9 -94q0 -64 -24.5 -103t-50.5 -52h392v-62h-489v58q4 1 10 3.5t21 13.5t27 26t21.5 43.5t9.5 64.5q0 44 -10 102h-67v44h57q-15 69 -15 139q0 95 66 155t174 60q101 0 174 -52l-31 -56q-63 42 -140 42q-74 0 -117.5 -42.5t-43.5 -104.5
q0 -69 17 -141h263z" />
    <glyph glyph-name="yen.tnum" 
d="M641 701l-247 -414v-35h134v-39h-134v-54h134v-39h-134v-120h-85v120h-133v39h133v54h-133v39h133v35l-247 414h90l200 -340l199 340h90z" />
    <glyph glyph-name="divide.tnum" 
d="M576 350v-53h-450v53h450zM352 540q42 0 42 -42q0 -20 -11.5 -31.5t-30.5 -11.5q-20 0 -32 11.5t-12 31.5t12 31t32 11zM352 196q42 0 42 -41q0 -21 -11.5 -32t-30.5 -11q-20 0 -32 11.5t-12 31.5q0 19 12 30t32 11z" />
    <glyph glyph-name="equal.tnum" 
d="M541 442v-55h-379v55h379zM541 270v-56h-379v56h379z" />
    <glyph glyph-name="multiply.tnum" 
d="M148 497l41 42l162 -163l162 163l42 -42l-162 -163l162 -162l-42 -42l-162 162l-162 -162l-41 42l161 162z" />
    <glyph glyph-name="percent.tnum" 
d="M571 701l-380 -701h-63l383 701h60zM158 659q-42 0 -68 -32.5t-26 -85.5t26.5 -85t68.5 -32t66.5 32t24.5 85q0 55 -25 86.5t-67 31.5zM160 710q69 0 109 -45.5t40 -122.5t-40.5 -123t-110.5 -46q-68 0 -109 46t-41 121q0 78 41.5 124t110.5 46zM544 276q-42 0 -68 -32.5
t-26 -85.5t26.5 -85t68.5 -32t66.5 32t24.5 85q0 54 -25 86t-67 32zM545 327q69 0 109 -45.5t40 -122.5t-40.5 -123t-110.5 -46q-68 0 -109 45.5t-41 121.5q0 78 41.5 124t110.5 46z" />
    <glyph glyph-name="plus.tnum" 
d="M379 554v-191h196v-59h-196v-186h-61v186h-191v59h191v191h61z" />
    <glyph glyph-name="acute.case" horiz-adv-x="286" 
d="M222 679l-82 -113h-58l67 113h73z" />
    <glyph glyph-name="breve.case" horiz-adv-x="419" 
d="M285 684l56 -3q-15 -103 -131 -103q-117 0 -132 103l56 3q15 -63 76 -63q60 0 75 63z" />
    <glyph glyph-name="caron.case" horiz-adv-x="436" 
d="M364 679l-109 -113h-73l-109 113h70l76 -82l75 82h70z" />
    <glyph glyph-name="circumflex.case" horiz-adv-x="436" 
d="M255 679l109 -113h-70l-75 82l-76 -82h-70l109 113h73z" />
    <glyph glyph-name="dieresis.case" horiz-adv-x="451" 
d="M122 666q42 0 42 -40q0 -39 -42 -39q-41 0 -41 39q0 40 41 40zM329 666q41 0 41 -40q0 -39 -41 -39q-19 0 -30 10.5t-11 28.5t11 29t30 11z" />
    <glyph glyph-name="dotaccent.case" horiz-adv-x="239" 
d="M119 667q43 0 43 -39q0 -40 -43 -40q-19 0 -30 10.5t-11 29.5q0 18 11 28.5t30 10.5z" />
    <glyph glyph-name="grave.case" horiz-adv-x="298" 
d="M170 677l58 -111h-59l-73 111h74z" />
    <glyph glyph-name="hungarumlaut.case" horiz-adv-x="452" 
d="M369 679l-74 -113h-58l58 113h74zM226 679l-74 -113h-58l58 113h74z" />
    </font>
</defs>
</svg>
